<svg version="1.1" id="Layer_1" xmlns="http://www.w3.org/2000/svg" xmlns:xlink="http://www.w3.org/1999/xlink" x="0px" y="0px"
	 width="100%" viewBox="0 0 72 72" enable-background="new 0 0 72 72" xml:space="preserve">
<path fill="#FEFEFE" opacity="1.000000" stroke="none" 
	d="
M1.000000,48.000000 
	C1.000000,32.373276 1.000000,16.746553 1.000000,1.059915 
	C24.898746,1.059915 48.797672,1.059915 73.000000,1.059915 
	C73.000000,18.353048 73.000000,35.707867 72.641663,53.537491 
	C70.194771,54.807262 68.106209,55.602230 66.298386,56.128124 
	C66.406738,54.265438 66.234352,52.671829 65.761963,51.036728 
	C64.964432,50.704342 64.466896,50.413441 63.978878,49.770203 
	C63.996250,48.947987 64.004105,48.478107 64.216141,47.882729 
	C64.404816,47.404285 64.389305,47.051338 64.373795,46.698395 
	C64.244934,47.127934 64.116081,47.557476 63.630520,47.996513 
	C61.846802,49.953369 60.419785,51.900726 58.662819,53.924553 
	C56.862526,54.972775 55.392185,55.944527 53.647804,57.003288 
	C53.213154,57.195110 53.052551,57.299915 52.565559,57.357620 
	C51.170921,57.450417 50.102676,57.590317 49.015347,57.497681 
	C48.996265,57.265141 48.917660,56.805164 49.047569,56.562885 
	C49.494270,55.892197 49.811062,55.463783 50.400986,54.953129 
	C51.107338,54.513229 51.540562,54.155571 52.313778,53.767082 
	C54.266418,52.446964 54.747875,51.289505 52.221100,50.328522 
	C52.168308,50.180584 51.933613,49.971748 51.961929,49.761719 
	C51.297489,49.418591 50.604733,49.285496 49.566917,49.084503 
	C47.384327,47.019630 45.546799,45.022652 44.033009,43.006569 
	C44.930103,41.974628 45.503460,40.961788 45.964729,39.684273 
	C45.525417,38.949688 45.198196,38.479778 44.936600,37.634182 
	C45.264050,36.040241 45.525871,34.821987 45.875214,33.196487 
	C44.838310,33.196487 43.935364,33.196487 42.784023,33.204819 
	C42.207272,33.382519 42.038338,33.651909 42.020313,34.010590 
	C42.011795,33.999855 42.015739,34.020527 41.673470,33.997265 
	C40.876598,33.998482 40.421993,34.022961 39.689453,33.961044 
	C39.180290,33.582191 38.949062,33.289738 38.978287,32.736629 
	C39.510639,31.814508 39.782543,31.153044 40.027794,30.494560 
	C40.001144,30.497540 40.027729,30.541159 40.297878,30.620628 
	C40.742519,30.630884 40.917011,30.561666 41.462368,30.461437 
	C42.401989,29.965870 42.970741,29.501316 43.682770,29.004765 
	C44.023926,28.844599 44.075981,28.672419 44.285404,28.201653 
	C46.141701,24.687567 48.193478,21.454950 44.973534,17.616400 
	C43.326511,16.560970 41.833939,15.835480 40.353020,14.814680 
	C40.440166,14.337384 40.515659,14.155396 40.774658,13.701498 
	C40.625721,13.033279 40.293278,12.636972 39.631626,12.178022 
	C38.857384,12.076097 38.412350,12.036814 37.811695,11.705162 
	C37.129959,10.267773 36.603848,9.122751 35.980141,7.668728 
	C35.274975,7.294487 34.667400,7.229249 33.814213,7.105998 
	C33.408562,7.099892 33.248524,7.151798 32.756721,7.248512 
	C29.707979,9.141330 28.465500,11.617726 29.124222,15.207164 
	C29.110119,15.677046 29.144352,15.864725 28.896927,16.245567 
	C28.470234,17.323868 28.325193,18.209009 28.017124,19.357708 
	C27.709818,20.362413 27.565540,21.103556 27.375999,22.137436 
	C27.574451,22.970984 27.818167,23.511791 28.028957,24.361523 
	C28.329941,25.115730 28.663851,25.561014 29.087761,26.245647 
	C29.224966,26.648806 29.272173,26.812613 29.003647,27.081604 
	C28.371420,27.751232 28.054928,28.315676 27.435112,28.923527 
	C26.723066,29.004969 26.314346,29.043003 25.660770,29.201038 
	C24.624189,30.213942 23.832466,31.106842 22.728985,32.016975 
	C18.307209,33.633892 21.730915,34.751728 22.727760,36.361408 
	C22.844872,37.140347 22.906906,37.586182 22.823233,38.365379 
	C23.048166,40.463474 23.418810,42.228210 23.943836,44.282944 
	C24.742535,45.129173 25.386854,45.685402 26.252800,46.483364 
	C26.863440,46.920292 27.252455,47.115482 27.637760,47.376480 
	C27.634048,47.442287 27.734911,47.527164 27.600990,47.946701 
	C27.505377,48.657314 27.543688,48.948399 27.469559,49.581444 
	C27.375551,50.632736 27.393986,51.342064 27.306618,52.444183 
	C27.441488,54.598167 27.682161,56.359367 27.960236,58.332561 
	C27.997635,58.544559 28.011332,58.974693 27.805523,59.237633 
	C26.736212,59.665752 25.872707,59.830929 24.746075,60.021858 
	C24.306696,60.046268 24.130445,60.044926 23.872448,59.761826 
	C23.194176,58.997185 22.597649,58.514305 21.902981,57.719116 
	C21.185759,56.273552 20.566679,55.140293 19.943621,53.714985 
	C19.596968,52.953693 19.254295,52.484459 18.945126,51.659966 
	C18.628603,50.216232 18.278580,49.127762 17.934414,47.691055 
	C17.630051,46.728065 17.319834,46.113304 17.035191,45.417263 
	C17.060764,45.335979 17.054562,45.165665 16.978664,44.888763 
	C16.766348,44.075108 16.629927,43.538353 16.785494,43.041969 
	C17.732012,42.772732 18.386541,42.463123 19.295027,41.924667 
	C19.030447,40.791191 18.511913,39.886570 17.829052,38.751972 
	C17.076767,38.982529 16.488808,39.443058 15.653651,40.076927 
	C15.278770,40.825600 15.151087,41.400932 14.635717,42.051460 
	C12.167239,42.430767 10.086445,42.734882 7.825738,42.862320 
	C7.380063,43.447861 7.114301,44.210075 6.640738,44.973320 
	C6.432938,44.974350 6.018037,44.998573 5.716073,45.018074 
	C4.942329,45.357067 4.470548,45.676552 3.726054,46.143715 
	C3.291821,46.855389 3.130302,47.419392 2.982747,47.989712 
	C2.996711,47.996029 2.970418,47.970741 2.644962,47.900158 
	C1.879671,47.886383 1.439835,47.943192 1.000000,48.000000 
M56.337303,42.683205 
	C56.845840,43.118267 57.327843,43.597004 57.892342,43.939949 
	C57.974300,43.989750 58.451187,43.389496 58.745327,43.090042 
	C58.113285,42.793945 57.481243,42.497852 56.337303,42.683205 
M70.814079,51.740711 
	C70.972748,51.625252 71.131409,51.509796 71.290077,51.394341 
	C71.069313,51.417843 70.848557,51.441345 70.814079,51.740711 
z"/>
<path fill="#FAFAFA" opacity="1.000000" stroke="none" 
	d="
M66.017647,56.397194 
	C68.106209,55.602230 70.194771,54.807262 72.641663,54.006149 
	C73.000000,60.222301 73.000000,66.444603 73.000000,73.000000 
	C70.336586,73.000000 67.659348,73.000000 64.526199,72.651398 
	C64.719131,70.598587 65.367966,68.894394 66.304123,67.107422 
	C66.820839,66.497299 67.050232,65.969940 67.260086,65.417130 
	C67.240547,65.391678 67.218513,65.331406 67.192970,64.997894 
	C67.122299,64.445999 67.077179,64.227615 67.153152,63.784988 
	C67.332787,63.401230 67.391319,63.241722 67.659355,62.847519 
	C67.247337,61.414635 66.625824,60.216442 65.811737,58.786377 
	C65.467003,57.972298 65.314842,57.390091 65.155746,56.617317 
	C65.148811,56.426746 65.084389,56.050838 65.088226,56.014984 
	C65.092072,55.979130 65.028908,55.944321 65.264397,56.082996 
	C65.672470,56.280178 65.845062,56.338688 66.017647,56.397194 
z"/>
<path fill="#FAFAFA" opacity="1.000000" stroke="none" 
	d="
M10.000000,73.000000 
	C7.040374,73.000000 4.080748,73.000000 1.000000,73.000000 
	C1.000000,65.312775 1.000000,57.625080 1.280494,49.585262 
	C2.014239,49.630314 2.467489,50.027489 2.933555,50.435825 
	C2.946370,50.446987 2.964152,50.477062 2.875390,50.844826 
	C3.155865,51.817322 3.525103,52.422050 3.931570,53.374161 
	C4.305978,54.513794 4.643157,55.306053 4.947038,56.421913 
	C5.182734,57.523243 5.451729,58.300972 5.762637,59.321312 
	C5.804550,59.563927 5.930536,60.039951 5.920866,60.288460 
	C5.911196,60.536968 6.032072,61.019451 5.706807,61.114647 
	C2.292673,63.680679 2.718914,64.700653 7.936986,67.308365 
	C8.363287,67.767914 8.675013,67.969856 8.996904,68.528503 
	C9.338046,70.256805 9.669024,71.628403 10.000000,73.000000 
z"/>
<path fill="#F2F2F2" opacity="1.000000" stroke="none" 
	d="
M10.468658,73.000000 
	C9.669024,71.628403 9.338046,70.256805 9.388364,68.483047 
	C12.146241,68.427879 14.522825,68.774857 16.922722,69.103897 
	C16.946035,69.085960 16.893282,69.062897 17.042276,69.328262 
	C17.769716,69.671768 18.348162,69.749901 19.359943,69.893112 
	C21.544334,70.007652 23.295387,70.057137 25.272175,70.359360 
	C26.667791,70.072350 27.837679,69.532608 29.391773,68.944832 
	C30.805017,68.857506 31.834049,68.818214 33.135231,68.997406 
	C34.234207,69.600388 35.061035,69.984901 36.031395,70.497795 
	C36.473686,70.463219 36.772446,70.300255 37.396767,70.100761 
	C38.468277,70.478813 39.214222,70.893410 40.157555,71.495483 
	C40.903294,72.121971 41.451645,72.560982 42.000000,73.000000 
	C31.645771,73.000000 21.291544,73.000000 10.468658,73.000000 
z"/>
<path fill="#E1E2E2" opacity="1.000000" stroke="none" 
	d="
M42.460636,73.000000 
	C41.451645,72.560982 40.903294,72.121971 40.486221,71.405861 
	C41.066517,71.063332 41.515541,70.997894 42.370514,70.968872 
	C43.859802,70.960121 44.943146,70.914963 46.449211,70.912857 
	C48.281883,70.873947 49.691826,70.791977 51.453686,70.751465 
	C52.513535,70.802872 53.221462,70.812813 53.950272,71.185287 
	C53.980762,72.031883 53.990379,72.515938 54.000000,73.000000 
	C50.307091,73.000000 46.614182,73.000000 42.460636,73.000000 
z"/>
<path fill="#F3F3F3" opacity="1.000000" stroke="none" 
	d="
M66.016800,67.190193 
	C65.367966,68.894394 64.719131,70.598587 64.035149,72.651398 
	C62.933331,73.000000 61.866661,73.000000 60.399300,72.633682 
	C60.003578,71.534744 60.008553,70.802116 60.365135,70.052795 
	C61.466270,69.371231 62.215797,68.706375 62.986496,67.803345 
	C63.007664,67.565186 63.025135,67.087303 63.335075,66.997536 
	C64.064102,66.811020 64.483192,66.714272 65.164574,66.792473 
	C65.623512,67.041672 65.820152,67.115929 66.016800,67.190193 
z"/>
<path fill="#E9E9E9" opacity="1.000000" stroke="none" 
	d="
M60.013527,70.069496 
	C60.008553,70.802116 60.003578,71.534744 59.999306,72.633682 
	C58.285839,73.000000 56.571674,73.000000 54.428757,73.000000 
	C53.990379,72.515938 53.980762,72.031883 54.015030,71.011848 
	C54.058918,70.475876 54.198273,70.132210 54.559906,70.146988 
	C56.098888,69.940071 57.276241,69.718376 58.839275,69.651596 
	C59.487816,69.894173 59.750671,69.981834 60.013527,70.069496 
z"/>
<path fill="#CEC1AE" opacity="1.000000" stroke="none" 
	d="
M2.920739,50.424664 
	C2.467489,50.027489 2.014239,49.630314 1.280494,49.116570 
	C1.000000,49.000000 1.000000,48.500000 1.000000,48.250000 
	C1.439835,47.943192 1.879671,47.886383 2.679190,48.308872 
	C2.999495,49.333668 2.960117,49.879166 2.920739,50.424664 
z"/>
<path fill="#403A38" opacity="1.000000" stroke="none" 
	d="
M43.709270,43.025673 
	C45.546799,45.022652 47.384327,47.019630 49.443844,49.344860 
	C49.095917,50.119041 48.526001,50.564976 47.637161,51.052460 
	C46.210964,52.061420 45.103695,53.028824 43.751297,53.844978 
	C42.998539,53.134865 42.490906,52.576004 41.864113,51.751228 
	C41.169628,50.982647 40.594296,50.479984 39.761135,50.053352 
	C39.299809,50.416107 39.096310,50.702831 38.704151,50.956139 
	C38.515491,50.922718 38.144421,50.827084 38.137264,50.456665 
	C37.462978,48.215214 36.795845,46.344185 36.445061,44.410568 
	C37.173702,44.236088 37.585999,44.124195 38.371437,43.997421 
	C40.399475,43.663582 42.054375,43.344627 43.709270,43.025673 
z"/>
<path fill="#F9EED1" opacity="1.000000" stroke="none" 
	d="
M40.027729,30.541159 
	C40.027729,30.541159 40.001144,30.497540 39.780701,30.490334 
	C39.560253,30.483128 39.070293,30.547709 38.915176,30.441902 
	C38.501644,30.550465 38.243233,30.764835 37.964291,31.085869 
	C37.943756,31.192535 38.037498,31.388517 37.766655,31.421291 
	C37.013187,31.698235 36.530560,31.942404 35.763737,32.051163 
	C34.588154,31.902224 33.696758,31.888695 32.433647,31.970299 
	C31.555225,32.074268 31.048521,32.083099 30.689541,31.761799 
	C30.926664,30.958916 31.016062,30.486172 31.360214,29.827690 
	C31.778706,28.839128 31.942444,28.036299 32.077240,26.858965 
	C31.659811,25.362663 31.271324,24.240868 30.923311,22.774488 
	C30.974958,21.968893 30.986130,21.507883 31.331593,21.061789 
	C32.110874,21.050657 32.555862,21.024609 33.123062,21.283562 
	C33.822769,22.381392 34.400265,23.194218 35.049049,24.235683 
	C35.278965,24.752487 35.502300,24.975990 35.832058,25.484272 
	C36.625080,26.766893 34.656601,29.766825 38.415401,28.577839 
	C38.986061,28.303022 39.188782,28.144609 39.484337,28.294518 
	C39.723061,28.760309 39.868950,28.917780 40.012199,29.042965 
	C40.009560,29.010679 39.949955,29.036064 39.911339,29.415319 
	C39.924393,30.043434 39.976059,30.292295 40.027729,30.541159 
z"/>
<path fill="#DDD0BA" opacity="1.000000" stroke="none" 
	d="
M53.921844,56.916283 
	C55.392185,55.944527 56.862526,54.972775 59.061028,53.974674 
	C60.857182,53.972359 61.925186,53.996384 62.997570,54.010262 
	C63.001953,54.000111 62.981247,54.000160 63.079155,54.266823 
	C63.509369,54.703712 63.841675,54.873940 64.383118,55.035240 
	C64.592247,55.026306 65.010178,55.001690 65.040436,55.236839 
	C65.070686,55.471992 65.028908,55.944321 65.028908,55.944321 
	C65.028908,55.944321 65.092072,55.979130 64.853386,56.091591 
	C64.319489,56.376945 64.110641,56.623104 63.961227,57.260300 
	C63.954857,58.002201 63.975426,58.426334 63.659554,58.903923 
	C62.898109,59.114685 62.473106,59.271996 61.674809,59.335209 
	C60.279564,59.274834 59.257614,59.308556 57.941185,59.226776 
	C57.437561,59.084393 57.228409,59.057507 56.736115,58.897133 
	C55.609264,58.147861 54.765556,57.532070 53.921844,56.916283 
z"/>
<path fill="#4A4244" opacity="1.000000" stroke="none" 
	d="
M45.127983,17.946339 
	C48.193478,21.454950 46.141701,24.687567 44.048176,28.002140 
	C42.728058,27.898052 41.948364,27.738905 41.116104,27.171638 
	C41.386337,25.506044 41.709141,24.248573 42.300980,22.787579 
	C43.422672,21.038149 44.275330,19.492245 45.127983,17.946339 
z"/>
<path fill="#423B3A" opacity="1.000000" stroke="none" 
	d="
M37.967316,11.997530 
	C38.412350,12.036814 38.857384,12.076097 39.641266,12.417042 
	C40.183792,13.136939 40.387470,13.555174 40.591148,13.973409 
	C40.515659,14.155396 40.440166,14.337384 40.183395,14.785292 
	C39.766617,15.046171 39.532509,15.061888 38.967949,15.073118 
	C38.072922,15.308790 37.509739,15.569701 36.608284,15.922607 
	C36.055603,16.107409 35.841202,16.200216 35.588432,16.321564 
	C35.550068,16.350107 35.465832,16.395395 35.134403,16.279688 
	C34.352165,16.061739 33.901360,15.959496 33.127655,15.790563 
	C32.381653,15.626170 31.958546,15.528468 31.478243,15.246817 
	C31.421049,15.062867 31.212120,14.739161 31.230862,14.482775 
	C31.483696,13.806528 31.717793,13.386670 32.338364,12.973885 
	C34.472332,12.653147 36.219822,12.325338 37.967316,11.997530 
z"/>
<path fill="#F7ECD3" opacity="1.000000" stroke="none" 
	d="
M2.933555,50.435825 
	C2.960117,49.879166 2.999495,49.333668 3.004646,48.379456 
	C2.970418,47.970741 2.996711,47.996029 3.226251,47.916313 
	C3.653161,47.566166 3.850530,47.295734 4.364579,46.973709 
	C5.126853,46.280933 5.572445,45.639755 6.018037,44.998573 
	C6.018037,44.998573 6.432938,44.974350 6.944606,44.978687 
	C7.657513,44.972862 7.858752,44.962700 8.295029,44.962044 
	C8.530066,44.971550 8.999709,44.999237 8.977324,45.294716 
	C9.298043,46.387455 9.641147,47.184723 9.970077,48.280273 
	C9.645700,49.052334 9.335496,49.526104 8.717133,50.016289 
	C7.651572,50.323387 6.894172,50.614075 5.854095,50.943832 
	C4.702331,50.814293 3.833241,50.645679 2.964152,50.477066 
	C2.964152,50.477062 2.946370,50.446987 2.933555,50.435825 
z"/>
<path fill="#7A6359" opacity="1.000000" stroke="none" 
	d="
M19.947599,54.007038 
	C20.566679,55.140293 21.185759,56.273552 21.898472,58.067547 
	C21.602583,59.507370 21.213060,60.286453 20.524057,60.892216 
	C18.870798,60.505650 17.517019,60.292404 16.269739,59.707321 
	C16.803875,57.590584 17.231510,55.845684 17.680136,54.101620 
	C17.701126,54.102451 17.742830,54.095612 17.802502,54.135773 
	C17.862171,54.175934 18.001482,54.211800 18.119400,54.343300 
	C18.470974,54.293060 18.704630,54.111320 19.193398,53.912689 
	C19.614872,53.932877 19.781235,53.969959 19.947599,54.007038 
z"/>
<path fill="#EBE3D3" opacity="1.000000" stroke="none" 
	d="
M23.789454,43.992943 
	C23.418810,42.228210 23.048166,40.463474 23.077049,38.350334 
	C23.645834,37.997417 23.815098,37.992897 24.308887,37.998337 
	C25.065277,38.019760 25.497139,38.031219 25.938976,38.271622 
	C25.948952,38.500561 25.968647,38.958447 26.021618,39.220600 
	C26.355602,39.933571 26.636614,40.384392 26.818600,41.196594 
	C26.731197,41.807510 26.742823,42.057045 26.793671,42.592655 
	C26.920046,43.254818 27.007196,43.630905 26.683300,43.990593 
	C25.444654,43.980442 24.617054,43.986694 23.789454,43.992943 
z"/>
<path fill="#9F7C5D" opacity="1.000000" stroke="none" 
	d="
M44.033009,43.006569 
	C42.054375,43.344627 40.399475,43.663582 38.268074,43.789074 
	C37.600105,43.340279 37.355312,43.155666 37.032028,42.680130 
	C36.985985,41.835762 36.965096,41.353039 37.086983,40.846489 
	C37.229755,40.822666 37.495857,40.936672 37.801331,40.888027 
	C38.400288,40.568813 38.693775,40.298241 39.234947,40.035946 
	C39.482635,40.044224 39.978088,40.058342 40.155205,40.280434 
	C41.208469,40.323338 42.084614,40.144157 43.221012,40.064983 
	C44.346451,40.092979 45.211632,40.020966 46.076817,39.948952 
	C45.503460,40.961788 44.930103,41.974628 44.033009,43.006569 
z"/>
<path fill="#423939" opacity="1.000000" stroke="none" 
	d="
M39.299789,15.098359 
	C39.532509,15.061888 39.766617,15.046171 40.171745,15.080600 
	C41.833939,15.835480 43.326511,16.560970 44.973534,17.616400 
	C44.275330,19.492245 43.422672,21.038149 42.277763,22.550903 
	C41.985504,22.517752 41.959251,22.042753 41.968758,21.687183 
	C41.338642,20.545614 40.699024,19.759611 39.944595,18.718653 
	C39.546532,17.983183 39.263279,17.502668 39.007835,16.697702 
	C39.123692,15.948287 39.211742,15.523323 39.299789,15.098359 
z"/>
<path fill="#484344" opacity="1.000000" stroke="none" 
	d="
M43.996422,53.996231 
	C45.103695,53.028824 46.210964,52.061420 47.876026,51.163521 
	C48.581882,51.327450 48.729946,51.421871 48.889133,51.673489 
	C48.900253,51.830685 48.961823,52.139786 48.828705,52.418747 
	C49.173012,53.476929 49.650433,54.256149 50.127853,55.035370 
	C49.811062,55.463783 49.494270,55.892197 48.695107,56.536026 
	C47.130959,57.129337 46.049183,57.507233 44.970932,57.610435 
	C44.982166,56.969383 44.989876,56.603024 44.923164,55.961124 
	C44.564930,55.446449 44.281116,55.207317 43.997765,54.725197 
	C43.998226,54.482208 43.996426,53.996235 43.996422,53.996231 
z"/>
<path fill="#745C51" opacity="1.000000" stroke="none" 
	d="
M36.047928,32.186573 
	C36.530560,31.942404 37.013187,31.698235 37.712650,31.660934 
	C38.192268,32.244297 38.455051,32.620792 38.717834,32.997288 
	C38.949062,33.289738 39.180290,33.582191 39.716686,34.282322 
	C39.980824,35.118340 39.939796,35.546673 39.676613,36.154442 
	C39.289871,36.872890 39.125286,37.411907 38.969383,37.956486 
	C38.978065,37.962051 38.969803,37.979126 38.710953,38.124550 
	C38.280006,38.625004 38.107910,38.980034 37.660835,39.289200 
	C37.211304,39.179512 37.036755,39.115692 36.855186,38.745674 
	C36.619431,37.868908 36.390697,37.298332 36.211914,36.428238 
	C35.977165,35.634827 35.692467,35.140934 35.352531,34.391945 
	C35.316471,33.787384 35.335648,33.437920 35.517303,32.979752 
	C35.848190,32.667465 35.970905,32.439308 36.047928,32.186573 
z"/>
<path fill="#5D4B45" opacity="1.000000" stroke="none" 
	d="
M37.811695,11.705162 
	C36.219822,12.325338 34.472332,12.653147 32.357864,12.604397 
	C32.356758,10.553127 32.722626,8.878416 33.088490,7.203705 
	C33.248524,7.151798 33.408562,7.099892 33.995159,7.330543 
	C34.973721,7.734644 35.525726,7.856188 36.077732,7.977731 
	C36.603848,9.122751 37.129959,10.267773 37.811695,11.705162 
z"/>
<path fill="#AFA396" opacity="1.000000" stroke="none" 
	d="
M49.034428,57.730225 
	C50.102676,57.590317 51.170921,57.450417 52.565609,57.668583 
	C52.846664,58.443104 52.801281,58.859550 52.405342,59.245728 
	C48.670734,59.164295 49.129211,61.744488 48.610954,63.876091 
	C47.968395,63.893333 47.600250,63.878216 47.158333,63.526558 
	C46.630707,61.916588 46.176853,60.643162 46.036221,59.172813 
	C47.244442,58.560665 48.139435,58.145447 49.034428,57.730225 
z"/>
<path fill="#6D6263" opacity="1.000000" stroke="none" 
	d="
M23.954195,60.043583 
	C24.130445,60.044926 24.306696,60.046268 24.958187,60.201920 
	C25.914537,60.626793 26.395647,60.897354 26.895409,61.510689 
	C26.617746,62.929348 26.321436,64.005241 25.719814,65.088593 
	C24.972435,65.471306 24.530365,65.846573 23.795204,66.225739 
	C23.311996,66.184456 23.121878,66.139275 22.948589,65.735680 
	C22.659781,64.254921 22.354139,63.132568 22.299870,61.883163 
	C23.018892,61.185265 23.486544,60.614422 23.954195,60.043583 
z"/>
<path fill="#967058" opacity="1.000000" stroke="none" 
	d="
M32.756721,7.248512 
	C32.722626,8.878416 32.356758,10.553127 31.971392,12.597325 
	C31.717793,13.386670 31.483696,13.806528 30.896967,14.573565 
	C30.087074,14.922150 29.629814,14.923555 29.172556,14.924961 
	C28.465500,11.617726 29.707979,9.141330 32.756721,7.248512 
z"/>
<path fill="#C9BBA9" opacity="1.000000" stroke="none" 
	d="
M23.040741,31.999741 
	C23.832466,31.106842 24.624189,30.213942 25.810131,29.445929 
	C26.763550,30.090267 27.322748,30.609720 27.906605,31.532520 
	C27.845299,33.014687 27.759333,34.093506 27.392670,35.139076 
	C26.740217,35.040970 26.368464,34.976109 25.996426,34.689697 
	C25.996140,34.468147 25.997723,34.025055 25.850113,33.765770 
	C25.141153,33.334709 24.579807,33.162930 23.915432,32.771629 
	C23.630072,32.263367 23.372849,32.079243 23.040741,31.999741 
z"/>
<path fill="#BA8C67" opacity="1.000000" stroke="none" 
	d="
M43.032413,33.196487 
	C43.935364,33.196487 44.838310,33.196487 45.875214,33.196487 
	C45.525871,34.821987 45.264050,36.040241 44.697556,37.753311 
	C43.929848,38.510555 43.466808,38.772980 42.674759,39.021591 
	C41.906750,39.004143 41.467747,39.000511 41.004890,38.756264 
	C40.981033,38.515656 40.938877,38.033909 41.238892,37.993996 
	C41.702801,37.287914 41.866692,36.621738 42.021675,35.632904 
	C42.013752,34.880337 42.014744,34.450432 42.015739,34.020527 
	C42.015739,34.020527 42.011795,33.999855 42.234924,33.939632 
	C42.721348,33.712193 42.912804,33.484554 43.032413,33.196487 
z"/>
<path fill="#FAFAFA" opacity="1.000000" stroke="none" 
	d="
M62.993187,54.020409 
	C61.925186,53.996384 60.857182,53.972359 59.390972,53.898209 
	C60.419785,51.900726 61.846802,49.953369 63.636494,48.002598 
	C63.999168,47.999184 64.011955,48.008224 64.011955,48.008224 
	C64.004105,48.478107 63.996250,48.947987 63.702072,49.978748 
	C63.274891,51.699886 63.134037,52.860149 62.993187,54.020409 
z"/>
<path fill="#C6BCAD" opacity="1.000000" stroke="none" 
	d="
M8.999709,44.999237 
	C8.999709,44.999237 8.530066,44.971550 8.283307,44.643585 
	C8.026249,43.890079 8.015949,43.464535 8.005651,43.038994 
	C10.086445,42.734882 12.167239,42.430767 14.647215,42.261940 
	C15.046395,42.397228 15.072898,42.817375 15.047171,43.192364 
	C15.013877,44.064671 15.006311,44.561993 14.650026,45.033710 
	C13.835639,44.986935 13.369969,44.965763 12.723127,44.946037 
	C12.541954,44.947479 12.178211,44.923790 12.001881,44.698265 
	C11.182155,44.632008 10.538760,44.791267 9.671297,44.959846 
	C9.447227,44.969166 8.999709,44.999237 8.999709,44.999237 
z"/>
<path fill="#C9BBA9" opacity="1.000000" stroke="none" 
	d="
M52.755890,59.276001 
	C52.801281,58.859550 52.846664,58.443104 52.891998,57.715691 
	C53.052551,57.299915 53.213154,57.195110 53.647804,57.003292 
	C54.765556,57.532070 55.609264,58.147861 56.730057,59.222443 
	C57.002029,60.115768 56.996925,60.550301 56.787823,61.105053 
	C56.321911,61.421070 56.142677,61.675182 55.752678,61.873955 
	C54.677841,61.497505 53.896450,61.234707 53.073692,60.684586 
	C52.940186,60.023514 52.848038,59.649757 52.755890,59.276001 
z"/>
<path fill="#FBF3B9" opacity="1.000000" stroke="none" 
	d="
M15.072898,42.817375 
	C15.072898,42.817375 15.046395,42.397228 15.034899,42.186745 
	C15.151087,41.400932 15.278770,40.825600 16.005047,40.109123 
	C17.072062,39.977383 17.540482,39.986790 18.271297,40.173203 
	C18.702818,40.951313 18.871944,41.552410 19.041071,42.153511 
	C18.386541,42.463123 17.732012,42.772732 16.431992,42.977921 
	C15.548633,42.854786 15.310765,42.836079 15.072898,42.817375 
z"/>
<path fill="#EBE3D3" opacity="1.000000" stroke="none" 
	d="
M22.728985,32.016975 
	C23.372849,32.079243 23.630072,32.263367 23.915901,33.051132 
	C24.027477,33.736294 24.035561,33.922428 24.011473,34.431564 
	C23.543764,35.179153 23.108225,35.603729 22.672684,36.028305 
	C21.730915,34.751728 18.307209,33.633892 22.728985,32.016975 
z"/>
<path fill="#5C5151" opacity="1.000000" stroke="none" 
	d="
M50.400986,54.953129 
	C49.650433,54.256149 49.173012,53.476929 48.994278,52.349358 
	C49.513802,51.917240 49.707287,51.791458 50.426071,51.257576 
	C51.297016,50.584911 51.615314,50.278332 51.933613,49.971748 
	C51.933613,49.971748 52.168308,50.180584 52.102165,50.739998 
	C52.015278,52.132248 51.994534,52.965084 51.973785,53.797913 
	C51.540562,54.155571 51.107338,54.513229 50.400986,54.953129 
z"/>
<path fill="#DDD1B7" opacity="1.000000" stroke="none" 
	d="
M32.106182,27.233471 
	C31.942444,28.036299 31.778706,28.839128 30.963484,29.809893 
	C29.786299,30.011793 29.260597,30.045757 28.553822,30.074556 
	C28.372749,30.069389 28.008665,30.072720 27.951735,29.772161 
	C27.842682,29.274443 27.790558,29.077280 27.738436,28.880119 
	C28.054928,28.315676 28.371420,27.751232 29.349178,27.081898 
	C30.709024,27.062494 31.407602,27.147982 32.106182,27.233471 
z"/>
<path fill="#F0E4BF" opacity="1.000000" stroke="none" 
	d="
M62.997570,54.010262 
	C63.134037,52.860149 63.274891,51.699886 63.692551,50.331081 
	C64.466896,50.413441 64.964432,50.704342 65.726822,51.377502 
	C65.664505,52.840405 65.337341,53.921047 65.010178,55.001690 
	C65.010178,55.001690 64.592247,55.026306 64.228508,54.808685 
	C63.570267,54.394096 63.275757,54.197128 62.981247,54.000160 
	C62.981247,54.000160 63.001953,54.000111 62.997570,54.010262 
z"/>
<path fill="#E1C38F" opacity="1.000000" stroke="none" 
	d="
M22.727760,36.361408 
	C23.108225,35.603729 23.543764,35.179153 24.335300,34.389782 
	C25.126772,34.025013 25.562246,34.025036 25.997723,34.025055 
	C25.997723,34.025055 25.996140,34.468147 26.118788,35.027863 
	C26.487263,36.724125 26.733089,37.860676 26.726315,38.988434 
	C26.305357,38.972576 26.137003,38.965511 25.968647,38.958447 
	C25.968647,38.958447 25.948952,38.500561 25.825176,38.029770 
	C25.129055,37.702110 24.556709,37.845242 23.984364,37.988373 
	C23.815098,37.992897 23.645834,37.997417 23.222755,38.016975 
	C22.906906,37.586182 22.844872,37.140347 22.727760,36.361408 
z"/>
<path fill="#987D6C" opacity="1.000000" stroke="none" 
	d="
M27.922834,58.120564 
	C27.682161,56.359367 27.441488,54.598167 27.575817,52.437695 
	C28.310225,52.026840 28.669634,52.015259 29.021255,52.400379 
	C29.016983,53.853615 29.020496,54.910149 28.760757,56.147018 
	C28.305948,56.925087 28.114391,57.522827 27.922834,58.120564 
z"/>
<path fill="#D8BDA8" opacity="1.000000" stroke="none" 
	d="
M30.997303,21.046871 
	C30.986130,21.507883 30.974958,21.968893 30.691345,22.903334 
	C29.955204,23.897997 29.491501,24.419230 28.921844,24.737545 
	C28.632895,24.267076 28.381557,24.106401 28.061882,24.052601 
	C27.818167,23.511791 27.574451,22.970984 27.668440,22.129267 
	C29.022837,21.192118 30.039530,20.555874 31.055988,20.202200 
	C31.036272,20.672136 31.016787,20.859503 30.997303,21.046871 
z"/>
<path fill="#F6E9CB" opacity="1.000000" stroke="none" 
	d="
M12.904300,44.944592 
	C13.369969,44.965763 13.835639,44.986935 14.991457,45.065582 
	C16.139257,45.137257 16.596909,45.151463 17.054562,45.165665 
	C17.054562,45.165665 17.060764,45.335979 16.989845,45.697670 
	C16.892069,46.245590 16.865210,46.431824 16.574566,46.694157 
	C16.142462,46.841702 15.974142,46.913151 15.611946,47.093773 
	C15.193173,47.411366 15.039536,47.663277 14.734044,47.981560 
	C14.510930,48.004433 14.062502,48.015652 13.805927,48.025654 
	C13.379431,48.056385 13.209511,48.077114 13.027994,48.078278 
	C13.016397,48.058708 13.006720,48.014256 13.011285,47.630627 
	C12.978666,46.479530 12.941483,45.712059 12.904300,44.944592 
z"/>
<path fill="#958881" opacity="1.000000" stroke="none" 
	d="
M17.928556,48.039288 
	C18.278580,49.127762 18.628603,50.216232 18.744434,51.783119 
	C18.263515,52.469009 18.085756,52.724476 17.828022,53.039902 
	C17.679085,53.051861 17.379894,53.067932 17.192211,52.783718 
	C16.649008,51.678097 16.293488,50.856689 16.210800,49.836029 
	C16.646873,48.977100 16.810114,48.317429 17.212242,47.752922 
	C17.610271,47.911819 17.769413,47.975555 17.928556,48.039288 
z"/>
<path fill="#B99C85" opacity="1.000000" stroke="none" 
	d="
M29.027798,24.940464 
	C29.491501,24.419230 29.955204,23.897997 30.650871,23.247917 
	C31.271324,24.240868 31.659811,25.362663 32.077240,26.858963 
	C31.407602,27.147982 30.709024,27.062494 29.664913,26.976715 
	C29.272173,26.812613 29.224966,26.648806 29.093708,25.979143 
	C29.015703,25.295681 29.021749,25.118073 29.027798,24.940464 
z"/>
<path fill="#AD8B71" opacity="1.000000" stroke="none" 
	d="
M29.029041,52.003677 
	C28.669634,52.015259 28.310225,52.026840 27.681618,52.044907 
	C27.393986,51.342064 27.375551,50.632736 27.715656,49.529892 
	C28.411285,49.089275 28.748379,49.042171 29.288998,49.107582 
	C29.727331,49.432621 29.904142,49.685677 30.014565,50.237045 
	C30.001860,50.666714 29.997541,50.838604 29.890991,51.227085 
	C29.597523,51.714458 29.344284,51.901123 29.029041,52.003677 
z"/>
<path fill="#B99C85" opacity="1.000000" stroke="none" 
	d="
M31.056223,19.919632 
	C30.039530,20.555874 29.022837,21.192118 27.713703,21.836529 
	C27.565540,21.103556 27.709818,20.362413 28.314510,19.331085 
	C29.173616,19.026894 29.572311,19.012884 30.240112,18.993622 
	C30.688477,18.987404 30.867731,18.986435 31.050770,19.218994 
	C31.054554,19.452520 31.056223,19.919632 31.056223,19.919632 
z"/>
<path fill="#CEB680" opacity="1.000000" stroke="none" 
	d="
M65.040436,55.236839 
	C65.337341,53.921047 65.664505,52.840405 66.026810,51.418991 
	C66.234352,52.671829 66.406738,54.265438 66.298386,56.128120 
	C65.845062,56.338688 65.672470,56.280178 65.264397,56.082996 
	C65.028908,55.944321 65.070686,55.471992 65.040436,55.236839 
z"/>
<path fill="#8E5850" opacity="1.000000" stroke="none" 
	d="
M23.872448,59.761826 
	C23.486544,60.614422 23.018892,61.185265 22.029724,61.873371 
	C21.328386,61.993572 21.148565,61.996510 20.941345,61.764580 
	C20.913942,61.529720 20.823536,61.065536 20.823536,61.065536 
	C21.213060,60.286453 21.602583,59.507370 21.996613,58.379856 
	C22.597649,58.514305 23.194176,58.997185 23.872448,59.761826 
z"/>
<path fill="#B8AA98" opacity="1.000000" stroke="none" 
	d="
M41.673470,33.997265 
	C42.014744,34.450432 42.013752,34.880337 41.863838,35.869373 
	C41.109535,36.277340 40.504150,36.126175 39.898766,35.975010 
	C39.939796,35.546673 39.980824,35.118340 39.994621,34.368721 
	C40.421993,34.022961 40.876598,33.998482 41.673470,33.997265 
z"/>
<path fill="#D8BDA8" opacity="1.000000" stroke="none" 
	d="
M41.168674,27.579758 
	C41.948364,27.738905 42.728058,27.898052 43.744976,28.256712 
	C44.075981,28.672419 44.023926,28.844599 43.555923,28.999033 
	C43.285801,29.025303 43.042217,28.959158 42.969376,28.688049 
	C42.438786,28.597090 41.981037,28.777237 41.436745,28.907900 
	C41.350197,28.858414 41.175476,28.954491 40.867023,28.943764 
	C40.355698,28.967379 40.152824,29.001722 39.949955,29.036064 
	C39.949955,29.036064 40.009560,29.010679 39.990761,28.753834 
	C39.967461,28.303816 39.962959,28.110640 40.133682,27.999973 
	C40.585426,28.117924 40.807697,28.024746 41.059704,27.778044 
	C41.143677,27.753138 41.168674,27.579758 41.168674,27.579758 
z"/>
<path fill="#E4BD9F" opacity="1.000000" stroke="none" 
	d="
M29.971004,18.998875 
	C29.572311,19.012884 29.173616,19.026894 28.477539,19.067526 
	C28.325193,18.209009 28.470234,17.323868 29.128529,16.408436 
	C29.779753,16.925039 29.917725,17.471935 30.021671,18.262743 
	C29.987650,18.506653 29.971004,18.998875 29.971004,18.998875 
z"/>
<path fill="#D0B59A" opacity="1.000000" stroke="none" 
	d="
M29.085472,48.995064 
	C28.748379,49.042171 28.411285,49.089275 27.828094,49.187935 
	C27.543688,48.948399 27.505377,48.657314 27.586578,47.962303 
	C27.706089,47.558372 27.696995,47.565147 27.786646,47.165993 
	C27.881817,46.223465 27.887339,45.680096 27.948359,45.066452 
	C28.003859,44.996178 28.113827,44.854816 28.333172,44.918770 
	C28.552515,44.982719 29.008520,45.023392 29.203136,45.042595 
	C29.397753,45.061798 29.788418,45.042870 29.798595,45.246246 
	C29.808771,45.449623 29.820904,45.856705 29.637772,46.007912 
	C29.238440,46.404915 29.104828,46.689499 29.053368,47.290466 
	C29.086308,47.750092 29.119684,47.932121 29.134754,48.334270 
	C29.116449,48.554390 29.085472,48.995064 29.085472,48.995064 
z"/>
<path fill="#EDD891" opacity="1.000000" stroke="none" 
	d="
M56.593254,42.442482 
	C57.481243,42.497852 58.113285,42.793945 58.745327,43.090042 
	C58.451187,43.389496 57.974300,43.989750 57.892342,43.939949 
	C57.327843,43.597004 56.845840,43.118267 56.593254,42.442482 
z"/>
<path fill="#6F6360" opacity="1.000000" stroke="none" 
	d="
M52.313782,53.767082 
	C51.994534,52.965084 52.015278,52.132248 52.154953,50.887939 
	C54.747875,51.289505 54.266418,52.446964 52.313782,53.767082 
z"/>
<path fill="#E9E9E9" opacity="1.000000" stroke="none" 
	d="
M26.876759,61.167919 
	C26.395647,60.897354 25.914537,60.626793 25.221315,60.176170 
	C25.872707,59.830929 26.736212,59.665752 28.036137,59.328163 
	C28.472555,59.155746 28.967714,59.138107 28.983120,59.100231 
	C28.998526,59.062355 28.925678,59.025196 28.932037,59.303043 
	C29.041109,59.734890 29.143820,59.888889 29.198868,60.285652 
	C29.151203,60.528416 29.001196,60.999924 28.646389,61.025158 
	C27.819975,61.089569 27.348366,61.128742 26.876759,61.167919 
z"/>
<path fill="#F2F2F2" opacity="1.000000" stroke="none" 
	d="
M49.015347,57.497684 
	C48.139435,58.145447 47.244442,58.560665 45.808224,58.987312 
	C45.167137,58.627537 45.067272,58.256332 44.967411,57.885128 
	C46.049183,57.507233 47.130959,57.129337 48.565193,56.778305 
	C48.917660,56.805164 48.996265,57.265141 49.015347,57.497684 
z"/>
<path fill="#D0B26C" opacity="1.000000" stroke="none" 
	d="
M51.961929,49.761719 
	C51.615314,50.278332 51.297016,50.584911 50.186108,51.151474 
	C49.221668,51.446407 49.049839,51.481350 48.878014,51.516293 
	C48.729946,51.421871 48.581882,51.327450 48.194954,51.121971 
	C48.526001,50.564976 49.095917,50.119041 49.788910,49.412750 
	C50.604733,49.285496 51.297489,49.418591 51.961929,49.761719 
z"/>
<path fill="#C5AF99" opacity="1.000000" stroke="none" 
	d="
M23.943836,44.282944 
	C24.617054,43.986694 25.444654,43.980442 26.918734,43.967384 
	C27.565212,43.960583 28.040565,43.964260 28.047756,44.187988 
	C28.054949,44.411716 28.113827,44.854816 28.113827,44.854816 
	C28.113827,44.854816 28.003859,44.996178 27.648655,45.045235 
	C26.872694,45.476734 26.451933,45.859180 26.031174,46.241627 
	C25.386854,45.685402 24.742535,45.129173 23.943836,44.282944 
z"/>
<path fill="#948174" opacity="1.000000" stroke="none" 
	d="
M43.003773,39.035404 
	C43.466808,38.772980 43.929848,38.510555 44.631927,38.128998 
	C45.198196,38.479778 45.525417,38.949688 45.964729,39.684277 
	C45.211632,40.020966 44.346451,40.092979 43.236534,39.832985 
	C42.991802,39.500980 43.003773,39.035404 43.003773,39.035404 
z"/>
<path fill="#E2DFD9" opacity="1.000000" stroke="none" 
	d="
M26.252800,46.483364 
	C26.451933,45.859180 26.872694,45.476734 27.593155,45.115509 
	C27.887339,45.680096 27.881817,46.223465 27.755096,47.106274 
	C27.633898,47.445713 27.641470,47.310673 27.641470,47.310673 
	C27.252455,47.115482 26.863440,46.920292 26.252800,46.483364 
z"/>
<path fill="#E5DCC9" opacity="1.000000" stroke="none" 
	d="
M5.716073,45.018074 
	C5.572445,45.639755 5.126853,46.280933 4.345609,46.716576 
	C4.006227,46.339375 4.002498,46.167706 3.998768,45.996040 
	C4.470548,45.676552 4.942329,45.357067 5.716073,45.018074 
z"/>
<path fill="#BC9B7E" opacity="1.000000" stroke="none" 
	d="
M30.055695,18.018833 
	C29.917725,17.471935 29.779753,16.925039 29.410183,16.215273 
	C29.144352,15.864725 29.110119,15.677046 29.124222,15.207163 
	C29.629814,14.923555 30.087074,14.922150 30.878227,14.829952 
	C31.212120,14.739161 31.421049,15.062867 31.307936,15.598368 
	C30.815113,16.762190 30.435404,17.390512 30.055695,18.018833 
z"/>
<path fill="#DED39E" opacity="1.000000" stroke="none" 
	d="
M19.295025,41.924664 
	C18.871944,41.552410 18.702818,40.951313 18.263224,39.919724 
	C17.992964,39.320141 17.993170,39.151043 17.993378,38.981945 
	C18.511913,39.886570 19.030447,40.791191 19.295025,41.924664 
z"/>
<path fill="#F8F3D5" opacity="1.000000" stroke="none" 
	d="
M17.829052,38.751972 
	C17.993170,39.151043 17.992964,39.320141 18.000830,39.742714 
	C17.540482,39.986790 17.072062,39.977383 16.252243,39.935783 
	C16.488808,39.443058 17.076767,38.982529 17.829052,38.751972 
z"/>
<path fill="#F1ECDF" opacity="1.000000" stroke="none" 
	d="
M27.435112,28.923527 
	C27.790558,29.077280 27.842682,29.274443 27.928982,30.037079 
	C27.936089,30.778091 27.909019,30.953630 27.881948,31.129171 
	C27.322748,30.609720 26.763550,30.090267 26.054987,29.325928 
	C26.314346,29.043003 26.723066,29.004969 27.435112,28.923527 
z"/>
<path fill="#8C7A72" opacity="1.000000" stroke="none" 
	d="
M38.978287,32.736629 
	C38.455051,32.620792 38.192268,32.244297 37.983490,31.628160 
	C38.037498,31.388517 37.943756,31.192535 38.259041,31.036762 
	C38.739647,30.769894 38.904968,30.658800 39.070293,30.547709 
	C39.070293,30.547709 39.560253,30.483128 39.807350,30.487354 
	C39.782543,31.153044 39.510639,31.814508 38.978287,32.736629 
z"/>
<path fill="#A89282" opacity="1.000000" stroke="none" 
	d="
M17.976961,53.027939 
	C18.085756,52.724476 18.263515,52.469009 18.710930,52.138378 
	C19.254295,52.484459 19.596968,52.953693 19.943621,53.714985 
	C19.781235,53.969959 19.614872,53.932877 18.953175,53.962547 
	C18.457844,54.029305 18.001482,54.211800 18.001482,54.211800 
	C18.001482,54.211800 17.862171,54.175934 17.874807,53.871124 
	C17.917284,53.386856 17.947123,53.207397 17.976961,53.027939 
z"/>
<path fill="#E5DCC9" opacity="1.000000" stroke="none" 
	d="
M7.825738,42.862320 
	C8.015949,43.464535 8.026249,43.890079 8.048270,44.634079 
	C7.858752,44.962700 7.657513,44.972862 7.152407,44.977657 
	C7.114301,44.210075 7.380063,43.447861 7.825738,42.862320 
z"/>
<path fill="#C2BBAD" opacity="1.000000" stroke="none" 
	d="
M16.978664,44.888767 
	C16.596909,45.151463 16.139257,45.137257 15.340176,45.091179 
	C15.006311,44.561993 15.013877,44.064671 15.047171,43.192364 
	C15.310765,42.836079 15.548633,42.854786 16.140003,42.937546 
	C16.629927,43.538353 16.766348,44.075108 16.978664,44.888767 
z"/>
<path fill="#765F53" opacity="1.000000" stroke="none" 
	d="
M28.967714,59.138107 
	C28.967714,59.138107 28.472555,59.155746 28.241943,59.065220 
	C28.011332,58.974693 27.997635,58.544559 27.960236,58.332561 
	C28.114391,57.522827 28.305948,56.925087 28.771820,56.543777 
	C29.019995,57.552837 28.993855,58.345474 28.967714,59.138107 
z"/>
<path fill="#C2BBAD" opacity="1.000000" stroke="none" 
	d="
M17.934414,47.691055 
	C17.769413,47.975555 17.610271,47.911819 17.191429,47.493126 
	C16.900600,46.964794 16.869474,46.791424 16.838350,46.618057 
	C16.865210,46.431824 16.892069,46.245590 16.964272,45.778954 
	C17.319834,46.113304 17.630051,46.728065 17.934414,47.691055 
z"/>
<path fill="#CEC1AE" opacity="1.000000" stroke="none" 
	d="
M3.726054,46.143715 
	C4.002498,46.167706 4.006227,46.339375 4.028928,46.768173 
	C3.850530,47.295734 3.653161,47.566166 3.212288,47.909996 
	C3.130302,47.419392 3.291821,46.855389 3.726054,46.143715 
z"/>
<path fill="#565355" opacity="1.000000" stroke="none" 
	d="
M40.774658,13.701498 
	C40.387470,13.555174 40.183792,13.136939 39.970474,12.479685 
	C40.293278,12.636972 40.625721,13.033279 40.774658,13.701498 
z"/>
<path fill="#FAFAFA" opacity="1.000000" stroke="none" 
	d="
M70.720932,51.602783 
	C70.848557,51.441345 71.069313,51.417843 71.290077,51.394341 
	C71.131409,51.509796 70.972748,51.625252 70.720932,51.602783 
z"/>
<path fill="#423B3A" opacity="1.000000" stroke="none" 
	d="
M35.980141,7.668728 
	C35.525726,7.856188 34.973721,7.734644 34.240768,7.388556 
	C34.667400,7.229249 35.274975,7.294487 35.980141,7.668728 
z"/>
<path fill="#AFA396" opacity="1.000000" stroke="none" 
	d="
M41.175476,28.954491 
	C41.175476,28.954491 41.350197,28.858414 41.816528,28.935013 
	C42.535980,28.994129 42.789101,28.976645 43.042217,28.959158 
	C43.042217,28.959158 43.285801,29.025303 43.412651,29.031033 
	C42.970741,29.501316 42.401989,29.965870 41.465717,30.073845 
	C41.123959,29.463011 41.149715,29.208752 41.175476,28.954491 
z"/>
<path fill="#FAFAFA" opacity="1.000000" stroke="none" 
	d="
M63.993195,47.993099 
	C64.116081,47.557476 64.244934,47.127934 64.373795,46.698395 
	C64.389305,47.051338 64.404816,47.404285 64.216141,47.882729 
	C64.011955,48.008224 63.999168,47.999184 63.993195,47.993099 
z"/>
<path fill="#AE9684" opacity="1.000000" stroke="none" 
	d="
M28.921844,24.737545 
	C29.021749,25.118073 29.015703,25.295681 29.003708,25.739792 
	C28.663851,25.561014 28.329941,25.115730 28.028957,24.361523 
	C28.381557,24.106401 28.632895,24.267076 28.921844,24.737545 
z"/>
<path fill="#A99689" opacity="1.000000" stroke="none" 
	d="
M40.867023,28.943764 
	C41.149715,29.208752 41.123959,29.463011 41.094852,30.104858 
	C40.917011,30.561666 40.742519,30.630884 40.297878,30.620628 
	C39.976059,30.292295 39.924393,30.043434 39.911339,29.415319 
	C40.152824,29.001722 40.355698,28.967379 40.867023,28.943764 
z"/>
<path fill="#AD8B71" opacity="1.000000" stroke="none" 
	d="
M27.637760,47.376480 
	C27.641470,47.310673 27.633898,47.445713 27.665447,47.505432 
	C27.696995,47.565147 27.706089,47.558372 27.720501,47.542770 
	C27.734911,47.527164 27.634048,47.442287 27.637760,47.376480 
z"/>
<path fill="#B8AA98" opacity="1.000000" stroke="none" 
	d="
M42.784023,33.204819 
	C42.912804,33.484554 42.721348,33.712193 42.243439,33.950371 
	C42.038338,33.651909 42.207272,33.382519 42.784023,33.204819 
z"/>
<path fill="#988783" opacity="1.000000" stroke="none" 
	d="
M64.902275,66.617523 
	C64.483192,66.714272 64.064102,66.811020 63.062035,66.921555 
	C62.296474,66.888161 62.113899,66.840981 61.957893,66.481201 
	C61.998623,65.749474 62.012791,65.330345 62.129211,64.676193 
	C62.494823,64.002167 62.758186,63.563156 63.326431,63.094254 
	C64.390259,63.325592 65.149200,63.586823 66.188507,63.892601 
	C66.656601,63.961178 66.844330,63.985210 67.032051,64.009239 
	C67.077179,64.227615 67.122299,64.445999 66.904808,64.851479 
	C66.430130,65.026978 66.218079,65.015381 65.776138,65.124634 
	C65.331589,65.702843 65.116936,66.160179 64.902275,66.617523 
z"/>
<path fill="#A08D86" opacity="1.000000" stroke="none" 
	d="
M66.004311,59.018253 
	C66.625824,60.216442 67.247337,61.414635 67.289764,62.832733 
	C66.464958,63.046307 66.219246,63.039982 65.957993,62.678619 
	C65.945938,61.620461 65.949440,60.917347 65.968468,59.915352 
	C65.990768,59.417068 65.997543,59.217659 66.004311,59.018253 
z"/>
<path fill="#AFA396" opacity="1.000000" stroke="none" 
	d="
M65.811737,58.786377 
	C65.997543,59.217659 65.990768,59.417068 65.714798,59.957626 
	C64.974129,60.501007 64.502678,60.703239 64.015396,60.563885 
	C63.998386,59.765022 63.997189,59.307747 63.995995,58.850468 
	C63.975426,58.426334 63.954857,58.002201 64.258957,57.262287 
	C64.776642,56.900303 64.969658,56.854095 65.162682,56.807884 
	C65.314842,57.390091 65.467003,57.972298 65.811737,58.786377 
z"/>
<path fill="#ABA6A1" opacity="1.000000" stroke="none" 
	d="
M65.164574,66.792473 
	C65.116936,66.160179 65.331589,65.702843 65.906334,65.367813 
	C66.604156,65.474281 66.941887,65.458435 67.279625,65.442581 
	C67.050232,65.969940 66.820839,66.497299 66.304123,67.107422 
	C65.820152,67.115929 65.623512,67.041672 65.164574,66.792473 
z"/>
<path fill="#D2D0CE" opacity="1.000000" stroke="none" 
	d="
M67.260086,65.417130 
	C66.941887,65.458435 66.604156,65.474281 66.136215,65.246956 
	C66.218079,65.015381 66.430130,65.026978 66.930351,65.184998 
	C67.218513,65.331406 67.240547,65.391678 67.260086,65.417130 
z"/>
<path fill="#CCCFC4" opacity="1.000000" stroke="none" 
	d="
M65.155746,56.617317 
	C64.969658,56.854095 64.776642,56.900303 64.285896,56.944519 
	C64.110641,56.623104 64.319489,56.376945 64.849548,56.127441 
	C65.084389,56.050838 65.148811,56.426746 65.155746,56.617317 
z"/>
<path fill="#887572" opacity="1.000000" stroke="none" 
	d="
M65.973541,63.033657 
	C66.219246,63.039982 66.464958,63.046307 67.080261,63.067421 
	C67.391319,63.241722 67.332787,63.401230 67.153152,63.784988 
	C66.844330,63.985210 66.656601,63.961178 66.211746,63.690361 
	C65.954620,63.443569 65.973541,63.033657 65.973541,63.033657 
z"/>
<path fill="#918180" opacity="1.000000" stroke="none" 
	d="
M7.822412,67.050743 
	C2.718914,64.700653 2.292673,63.680679 6.018703,61.152130 
	C6.865526,61.096783 7.075191,61.099148 7.224787,61.258591 
	C7.164720,61.415665 7.113379,61.750534 7.004504,62.038551 
	C7.948909,63.851280 9.002190,65.375992 9.683702,66.930527 
	C8.815428,66.990486 8.318920,67.020615 7.822412,67.050743 
z"/>
<path fill="#817270" opacity="1.000000" stroke="none" 
	d="
M7.936986,67.308365 
	C8.318920,67.020615 8.815428,66.990486 10.073864,66.904640 
	C13.227978,66.527122 15.620164,66.205315 17.894424,66.207047 
	C17.484135,67.394348 17.191772,68.258095 16.899410,69.121841 
	C14.522825,68.774857 12.146241,68.427879 9.378199,68.126343 
	C8.675013,67.969856 8.363287,67.767914 7.936986,67.308365 
z"/>
<path fill="#B2A79D" opacity="1.000000" stroke="none" 
	d="
M7.284854,61.101517 
	C7.075191,61.099148 6.865526,61.096783 6.343967,61.056931 
	C6.032072,61.019451 5.911196,60.536968 6.169366,60.201656 
	C6.611377,59.582672 6.795218,59.298996 7.024895,58.984428 
	C7.070731,58.953537 7.162708,58.892204 7.467596,59.080917 
	C9.177309,59.510578 10.582135,59.751526 11.958961,60.332462 
	C10.848264,64.490372 8.981255,61.464424 7.383803,61.182354 
	C7.338226,61.176373 7.284854,61.101517 7.284854,61.101517 
z"/>
<path fill="#B2A79D" opacity="1.000000" stroke="none" 
	d="
M5.720723,59.078697 
	C5.451729,58.300972 5.182734,57.523243 4.945414,56.136978 
	C4.985060,55.338997 4.993032,55.149559 5.338322,54.976463 
	C6.125706,55.011776 6.575773,55.030735 7.045160,55.404388 
	C7.108335,56.464622 7.152192,57.170158 7.171505,58.129292 
	C7.152210,58.552654 7.157459,58.722427 7.162708,58.892204 
	C7.162708,58.892204 7.070731,58.953537 6.708710,58.967636 
	C6.138034,59.014050 5.929379,59.046371 5.720723,59.078697 
z"/>
<path fill="#B19A80" opacity="1.000000" stroke="none" 
	d="
M2.875390,50.844826 
	C3.833241,50.645679 4.702331,50.814293 5.823764,51.269676 
	C6.093804,51.990585 6.111500,52.424728 5.858642,52.918110 
	C5.404457,52.996658 5.220826,53.015968 4.751506,53.029858 
	C4.275325,53.025215 4.084833,53.025997 3.894341,53.026783 
	C3.525103,52.422050 3.155865,51.817322 2.875390,50.844826 
z"/>
<path fill="#A4886D" opacity="1.000000" stroke="none" 
	d="
M3.931570,53.374161 
	C4.084833,53.025997 4.275325,53.025215 4.735396,53.350098 
	C5.003652,54.103874 5.002328,54.531998 5.001004,54.960117 
	C4.993032,55.149559 4.985060,55.338997 4.978712,55.813374 
	C4.643157,55.306053 4.305978,54.513794 3.931570,53.374161 
z"/>
<path fill="#A08D86" opacity="1.000000" stroke="none" 
	d="
M5.762637,59.321312 
	C5.929379,59.046371 6.138034,59.014050 6.662874,58.998528 
	C6.795218,59.298996 6.611377,59.582672 6.179036,59.953148 
	C5.930536,60.039951 5.804550,59.563927 5.762637,59.321312 
z"/>
<path fill="#8B807D" opacity="1.000000" stroke="none" 
	d="
M41.964561,70.932457 
	C41.515541,70.997894 41.066517,71.063332 40.288830,71.218384 
	C39.214222,70.893410 38.468277,70.478813 37.089489,70.100861 
	C36.267048,70.214806 36.077454,70.292114 35.887863,70.369415 
	C35.061035,69.984901 34.234207,69.600388 33.137928,68.612297 
	C32.817879,66.984917 32.767281,65.961128 32.896690,64.914612 
	C33.076702,64.891884 33.435089,64.938202 33.748413,64.863297 
	C33.978619,64.151726 33.895500,63.515064 33.798355,62.546928 
	C33.881302,61.785454 33.978283,61.355453 34.493042,60.957718 
	C36.302906,61.050297 37.694996,61.110611 39.327698,61.421692 
	C40.750656,64.086494 41.933002,66.500519 42.856976,69.080750 
	C42.387257,69.808792 42.175911,70.370628 41.964561,70.932457 
z"/>
<path fill="#958280" opacity="1.000000" stroke="none" 
	d="
M16.922722,69.103897 
	C17.191772,68.258095 17.484135,67.394348 18.008846,66.002670 
	C18.454390,65.227776 18.718437,65.061501 19.027145,64.985413 
	C19.020950,64.994911 19.008640,64.973206 19.046646,65.323044 
	C20.034792,68.806374 21.996719,68.016724 24.160843,67.269966 
	C24.668001,68.181473 25.044825,68.771431 25.311024,69.539230 
	C25.200396,69.717064 25.046442,70.106621 25.046442,70.106621 
	C23.295387,70.057137 21.544334,70.007652 19.175514,69.672333 
	C18.002924,69.278625 17.448103,69.170761 16.893282,69.062897 
	C16.893282,69.062897 16.946035,69.085960 16.922722,69.103897 
z"/>
<path fill="#363333" opacity="1.000000" stroke="none" 
	d="
M32.716679,64.937332 
	C32.767281,65.961128 32.817879,66.984917 32.865784,68.393814 
	C31.834049,68.818214 30.805017,68.857506 29.471451,68.929947 
	C29.166920,68.963089 29.169136,68.800926 29.141716,68.597946 
	C29.114296,68.394966 28.972006,68.010696 29.231140,67.846725 
	C29.639025,67.100639 29.787775,66.518517 30.189651,65.828125 
	C30.929316,65.467072 31.415854,65.214294 32.106907,64.964417 
	C32.311420,64.967316 32.716679,64.937332 32.716679,64.937332 
z"/>
<path fill="#E9E9E9" opacity="1.000000" stroke="none" 
	d="
M25.272175,70.359360 
	C25.046442,70.106621 25.200396,69.717064 25.683268,69.497375 
	C27.167137,69.118767 28.168137,68.959846 29.169136,68.800926 
	C29.169136,68.800926 29.166920,68.963089 29.087242,68.977982 
	C27.837679,69.532608 26.667791,70.072350 25.272175,70.359360 
z"/>
<path fill="#817270" opacity="1.000000" stroke="none" 
	d="
M17.042276,69.328262 
	C17.448103,69.170761 18.002924,69.278625 18.742176,69.607269 
	C18.348162,69.749901 17.769716,69.671768 17.042276,69.328262 
z"/>
<path fill="#BEC3C6" opacity="1.000000" stroke="none" 
	d="
M36.031395,70.497795 
	C36.077454,70.292114 36.267048,70.214806 36.763924,70.137390 
	C36.772446,70.300255 36.473686,70.463219 36.031395,70.497795 
z"/>
<path fill="#7B726F" opacity="1.000000" stroke="none" 
	d="
M47.232101,63.863102 
	C47.600250,63.878216 47.968395,63.893333 48.750298,64.128296 
	C49.476910,64.554672 49.789768,64.761208 50.400574,64.950989 
	C51.187138,64.616898 51.675755,64.299553 52.359245,63.986107 
	C52.554119,63.990002 52.943237,64.013535 53.275547,63.988487 
	C54.051491,63.951977 54.495129,63.940517 55.316536,63.957108 
	C56.449467,63.981060 57.204620,63.976963 58.220215,63.982574 
	C58.654385,63.995056 58.828110,63.997833 59.000732,64.333900 
	C59.003071,65.111565 59.006508,65.555939 58.716492,66.129257 
	C57.281410,66.838112 56.139786,67.418015 54.752029,68.104874 
	C54.403358,68.851944 54.300816,69.492081 54.198273,70.132210 
	C54.198273,70.132210 54.058918,70.475876 53.994156,70.649323 
	C53.221462,70.812813 52.513535,70.802872 51.358147,70.433228 
	C49.278725,70.039162 47.646759,70.004791 45.784531,69.849228 
	C45.367355,69.442688 45.180439,69.157349 45.014023,68.528023 
	C45.767052,66.743729 46.499577,65.303413 47.232101,63.863102 
z"/>
<path fill="#9D9491" opacity="1.000000" stroke="none" 
	d="
M46.014790,69.970428 
	C47.646759,70.004791 49.278725,70.039162 51.006233,70.391769 
	C49.691826,70.791977 48.281883,70.873947 46.442333,70.688385 
	C46.012726,70.420845 46.014790,69.970428 46.014790,69.970428 
z"/>
<path fill="#9EA0A3" opacity="1.000000" stroke="none" 
	d="
M45.784531,69.849228 
	C46.014790,69.970428 46.012726,70.420845 46.019608,70.645325 
	C44.943146,70.914963 43.859802,70.960121 42.370514,70.968872 
	C42.175911,70.370628 42.387257,69.808792 43.169846,69.101349 
	C44.158566,68.927826 44.576042,68.899918 44.993523,68.872002 
	C45.180439,69.157349 45.367355,69.442688 45.784531,69.849228 
z"/>
<path fill="#BBB8B5" opacity="1.000000" stroke="none" 
	d="
M60.365135,70.052795 
	C59.750671,69.981834 59.487816,69.894173 58.793610,69.530159 
	C58.362263,69.253807 58.328289,68.994087 58.658676,68.913773 
	C59.320129,68.555145 59.651192,68.276840 60.218029,67.990738 
	C60.453804,67.982933 60.925560,67.989609 61.266014,67.993469 
	C62.059422,68.012054 62.512375,68.026787 62.965324,68.041512 
	C62.215797,68.706375 61.466270,69.371231 60.365135,70.052795 
z"/>
<path fill="#DEDCDC" opacity="1.000000" stroke="none" 
	d="
M62.986496,67.803345 
	C62.512375,68.026787 62.059422,68.012054 61.354408,67.737251 
	C61.378674,67.249382 61.654999,67.021591 61.931328,66.793800 
	C62.113899,66.840981 62.296474,66.888161 62.752094,67.011322 
	C63.025135,67.087303 63.007664,67.565186 62.986496,67.803345 
z"/>
<path fill="#75665A" opacity="1.000000" stroke="none" 
	d="
M58.328289,68.994087 
	C58.328289,68.994087 58.362263,69.253807 58.407928,69.375244 
	C57.276241,69.718376 56.098888,69.940071 54.559906,70.146988 
	C54.300816,69.492081 54.403358,68.851944 54.932701,68.367905 
	C56.349094,68.680695 57.338692,68.837387 58.328289,68.994087 
z"/>
<path fill="#7A5F53" opacity="1.000000" stroke="none" 
	d="
M36.128712,44.473156 
	C36.795845,46.344185 37.462978,48.215214 38.093800,50.782799 
	C38.063179,51.913818 38.068867,52.348282 37.916519,52.841217 
	C37.758488,52.899689 37.427914,52.965214 37.255112,52.721912 
	C36.360264,51.996937 35.638218,51.515259 34.614853,51.027191 
	C33.913925,51.046654 33.514320,51.072514 33.113548,50.757286 
	C32.741386,49.283672 32.370396,48.151146 32.005859,47.012375 
	C32.012318,47.006130 32.017727,47.023979 31.915112,46.757042 
	C31.536732,45.990665 31.260963,45.491222 31.125051,44.713409 
	C31.175591,43.290604 31.086277,42.146172 31.221304,40.899776 
	C31.723154,40.596626 31.907669,40.330864 32.022552,39.758888 
	C32.045910,39.517246 32.055569,39.031811 32.289684,39.031914 
	C32.523800,39.032013 32.991909,39.042831 33.020363,39.308273 
	C33.104069,39.743137 33.159313,39.912556 33.219669,40.386974 
	C33.816963,41.122421 34.409153,41.552872 35.033195,42.282692 
	C35.371357,43.062679 35.677658,43.543293 36.032524,44.132233 
	C36.081089,44.240555 36.128712,44.473156 36.128712,44.473156 
z"/>
<path fill="#675651" opacity="1.000000" stroke="none" 
	d="
M38.074554,52.782745 
	C38.068867,52.348282 38.063179,51.913818 38.100956,51.153221 
	C38.144421,50.827084 38.515491,50.922718 38.950371,50.859371 
	C39.596489,50.523121 39.807724,50.250217 40.018963,49.977318 
	C40.594296,50.479984 41.169628,50.982647 41.855225,52.174076 
	C41.530895,55.113300 41.096302,57.363766 40.325493,59.543224 
	C39.343887,59.241680 38.698505,59.011139 38.056725,58.409714 
	C38.099609,57.051628 38.138889,56.064430 38.429966,54.934120 
	C39.206963,54.356216 39.732162,53.921421 40.526577,53.263752 
	C39.364178,53.035728 38.719364,52.909237 38.074554,52.782745 
z"/>
<path fill="#574946" opacity="1.000000" stroke="none" 
	d="
M40.661709,59.614227 
	C41.096302,57.363766 41.530895,55.113300 41.974380,52.439991 
	C42.490906,52.576004 42.998539,53.134865 43.751301,53.844978 
	C43.996426,53.996235 43.998226,54.482208 43.991714,54.986961 
	C43.982563,55.666012 43.979931,55.840309 43.711231,56.231915 
	C42.641579,57.634247 41.837990,58.819263 40.899734,59.946411 
	C40.765072,59.888542 40.661709,59.614227 40.661709,59.614227 
z"/>
<path fill="#8F6E53" opacity="1.000000" stroke="none" 
	d="
M37.057178,43.041767 
	C37.355312,43.155666 37.600105,43.340279 37.894928,43.803955 
	C37.585999,44.124195 37.173702,44.236088 36.445061,44.410568 
	C36.128712,44.473156 36.081089,44.240555 36.171837,43.927948 
	C36.478428,43.356247 36.743294,43.165054 37.057178,43.041767 
z"/>
<path fill="#7A5F53" opacity="1.000000" stroke="none" 
	d="
M39.761135,50.053352 
	C39.807724,50.250217 39.596489,50.523121 39.139030,50.892792 
	C39.096310,50.702831 39.299809,50.416107 39.761135,50.053352 
z"/>
<path fill="#735A53" opacity="1.000000" stroke="none" 
	d="
M39.958454,27.917465 
	C39.962959,28.110640 39.967461,28.303816 39.993401,28.786119 
	C39.868950,28.917780 39.723061,28.760309 39.475105,28.186554 
	C39.339020,27.576933 39.224743,27.461086 39.162086,27.067026 
	C38.888813,26.128178 38.483669,25.545029 38.108894,24.949474 
	C38.139271,24.937065 38.139107,24.871443 38.254646,24.605595 
	C37.917587,23.189898 37.464996,22.040051 37.020374,20.587454 
	C37.015453,19.882143 37.002563,19.479582 37.098503,18.800312 
	C37.798229,18.023121 38.389130,17.522638 38.980030,17.022154 
	C39.263279,17.502668 39.546532,17.983183 39.947220,19.042450 
	C40.696190,20.428385 41.327721,21.235569 41.959251,22.042753 
	C41.959251,22.042753 41.985504,22.517752 42.008720,22.754425 
	C41.709141,24.248573 41.386337,25.506044 41.116104,27.171638 
	C41.168674,27.579758 41.143677,27.753138 40.895462,27.625391 
	C40.296059,27.438095 40.066460,27.578035 39.958454,27.917465 
z"/>
<path fill="#BBA595" opacity="1.000000" stroke="none" 
	d="
M32.991909,39.042831 
	C32.991909,39.042831 32.523800,39.032013 31.952658,39.018669 
	C30.935137,39.013996 30.488756,39.022671 30.037226,38.683907 
	C30.034986,37.873180 30.037899,37.409889 30.259571,36.835968 
	C30.391354,36.205791 30.304375,35.686241 30.161125,35.118340 
	C30.104856,35.069984 29.978930,34.991489 30.031908,34.665852 
	C30.077072,33.900810 30.069258,33.461403 30.162163,32.775536 
	C30.323776,32.362347 30.384670,32.195618 30.468376,32.046555 
	C30.491190,32.064224 30.541815,32.091934 30.541815,32.091934 
	C31.048521,32.083099 31.555225,32.074268 32.517117,32.341930 
	C32.998314,32.871044 33.024323,33.123661 33.069477,33.741501 
	C33.065727,35.367973 33.042835,36.629223 33.010139,38.178497 
	C32.997528,38.658619 32.994717,38.850727 32.991909,39.042831 
z"/>
<path fill="#A99689" opacity="1.000000" stroke="none" 
	d="
M38.047462,28.694241 
	C34.656601,29.766825 36.625080,26.766893 36.166466,25.463074 
	C36.680260,25.062025 36.901363,25.031610 37.377350,24.979063 
	C37.801186,24.928432 37.970146,24.899937 38.139107,24.871443 
	C38.139107,24.871443 38.139271,24.937065 38.091782,25.326077 
	C38.084351,26.219261 38.124413,26.723436 38.142254,27.474251 
	C38.091145,28.044992 38.066952,28.369442 38.047462,28.694241 
z"/>
<path fill="#B49888" opacity="1.000000" stroke="none" 
	d="
M34.977760,24.007042 
	C34.400265,23.194218 33.822769,22.381392 33.110767,21.283470 
	C32.976261,20.998373 32.960884,20.979136 33.337452,20.983589 
	C34.217770,20.983253 34.721523,20.978460 35.430077,21.167999 
	C35.747345,21.910755 35.859810,22.459179 35.870411,23.231102 
	C35.575588,23.739851 35.311993,23.923996 34.977760,24.007042 
z"/>
<path fill="#988375" opacity="1.000000" stroke="none" 
	d="
M31.055988,20.202200 
	C31.056223,19.919632 31.054554,19.452520 31.272858,19.098152 
	C31.680044,18.467718 31.868927,18.191650 32.299988,17.934959 
	C32.542168,17.954332 33.022041,18.030687 32.995193,18.398796 
	C32.965858,19.504316 32.963371,20.241726 32.960884,20.979136 
	C32.960884,20.979136 32.976261,20.998373 32.988556,20.998466 
	C32.555862,21.024609 32.110874,21.050657 31.331593,21.061789 
	C31.016787,20.859503 31.036272,20.672136 31.055988,20.202200 
z"/>
<path fill="#AB7F65" opacity="1.000000" stroke="none" 
	d="
M33.050335,33.376278 
	C33.024323,33.123661 32.998314,32.871044 32.888832,32.246796 
	C33.696758,31.888695 34.588154,31.902224 35.763737,32.051163 
	C35.970905,32.439308 35.848190,32.667465 35.090717,32.997208 
	C34.224339,33.166550 33.947018,33.209724 33.509697,33.257828 
	C33.349689,33.262753 33.050335,33.376278 33.050335,33.376278 
z"/>
<path fill="#987D6C" opacity="1.000000" stroke="none" 
	d="
M35.049049,24.235683 
	C35.311993,23.923996 35.575588,23.739851 36.137390,23.234894 
	C36.684048,23.014347 36.861866,23.013514 37.027248,23.345377 
	C37.050701,24.119114 37.086586,24.560156 37.122471,25.001198 
	C36.901363,25.031610 36.680260,25.062025 36.124752,25.113636 
	C35.502300,24.975990 35.278965,24.752487 35.049049,24.235683 
z"/>
<path fill="#CFBCA1" opacity="1.000000" stroke="none" 
	d="
M30.689541,31.761799 
	C30.541815,32.091934 30.491190,32.064224 30.218187,31.832672 
	C29.541756,31.093987 29.138327,30.586855 28.734896,30.079723 
	C29.260597,30.045757 29.786299,30.011793 30.708729,29.995628 
	C31.016062,30.486172 30.926664,30.958916 30.689541,31.761799 
z"/>
<path fill="#A1897D" opacity="1.000000" stroke="none" 
	d="
M38.415401,28.577839 
	C38.066952,28.369442 38.091145,28.044992 38.365364,27.489422 
	C38.610695,27.257954 39.030209,27.422728 39.030209,27.422728 
	C39.224743,27.461086 39.339020,27.576933 39.382271,27.878231 
	C39.188782,28.144609 38.986061,28.303022 38.415401,28.577839 
z"/>
<path fill="#D8BDA8" opacity="1.000000" stroke="none" 
	d="
M38.915176,30.441902 
	C38.904968,30.658800 38.739647,30.769894 38.279572,30.930096 
	C38.243233,30.764835 38.501644,30.550465 38.915176,30.441902 
z"/>
<path fill="#958078" opacity="1.000000" stroke="none" 
	d="
M63.021545,63.124146 
	C62.758186,63.563156 62.494823,64.002167 61.831013,64.671837 
	C60.956703,64.598686 60.482845,64.294884 59.966385,63.674953 
	C59.296234,62.915100 58.668686,62.471371 58.030903,62.020370 
	C58.020668,62.013107 58.001049,61.997349 58.004276,61.768127 
	C58.007504,61.538906 58.023804,61.080708 58.054573,60.788567 
	C58.135448,60.111710 58.185555,59.726994 58.235661,59.342274 
	C59.257614,59.308556 60.279564,59.274834 61.660469,59.651909 
	C62.013264,60.708549 62.007103,61.354401 62.105682,62.239388 
	C62.480797,62.693729 62.751171,62.908939 63.021545,63.124146 
z"/>
<path fill="#887572" opacity="1.000000" stroke="none" 
	d="
M62.000938,62.000252 
	C62.007103,61.354401 62.013264,60.708549 62.033760,59.746002 
	C62.473106,59.271996 62.898109,59.114685 63.659554,58.903923 
	C63.997189,59.307747 63.998386,59.765022 63.847439,60.821587 
	C63.130512,61.613998 62.565727,61.807125 62.000938,62.000252 
z"/>
<path fill="#BDAB96" opacity="1.000000" stroke="none" 
	d="
M57.941185,59.226776 
	C58.185555,59.726994 58.135448,60.111710 57.797150,60.756577 
	C57.336578,61.006092 57.164200,60.995464 56.991817,60.984833 
	C56.996925,60.550301 57.002029,60.115768 57.013191,59.355927 
	C57.228409,59.057507 57.437561,59.084393 57.941185,59.226776 
z"/>
<path fill="#FAFAFA" opacity="1.000000" stroke="none" 
	d="
M63.079155,54.266823 
	C63.275757,54.197128 63.570267,54.394096 64.019379,54.817619 
	C63.841675,54.873940 63.509369,54.703712 63.079155,54.266823 
z"/>
<path fill="#5C4C48" opacity="1.000000" stroke="none" 
	d="
M39.007835,16.697702 
	C38.389130,17.522638 37.798229,18.023121 36.804115,18.778214 
	C36.010609,18.981426 35.620316,18.930029 35.172489,18.656601 
	C35.114952,18.434568 35.033485,17.983128 35.006550,17.985201 
	C34.979614,17.987274 34.980839,18.041294 35.204517,17.927231 
	C35.621029,17.541264 35.813858,17.269360 36.243332,16.878536 
	C36.635498,16.449945 36.791027,16.140280 36.946556,15.830612 
	C37.509739,15.569701 38.072922,15.308790 38.967949,15.073118 
	C39.211742,15.523323 39.123692,15.948287 39.007835,16.697702 
z"/>
<path fill="#A2816A" opacity="1.000000" stroke="none" 
	d="
M32.057812,17.915585 
	C31.868927,18.191650 31.680044,18.467718 31.269072,18.864626 
	C30.867731,18.986435 30.688477,18.987404 30.240112,18.993622 
	C29.971004,18.998875 29.987650,18.506653 30.021671,18.262743 
	C30.435404,17.390512 30.815113,16.762190 31.365129,15.782318 
	C31.958546,15.528468 32.381653,15.626170 32.914162,16.031918 
	C32.701649,16.865173 32.379730,17.390379 32.057812,17.915585 
z"/>
<path fill="#6B544A" opacity="1.000000" stroke="none" 
	d="
M32.299988,17.934959 
	C32.379730,17.390379 32.701649,16.865173 33.237057,16.098610 
	C33.901360,15.959496 34.352165,16.061739 35.024361,16.547880 
	C35.157444,17.301619 35.069141,17.671457 34.980843,18.041294 
	C34.980839,18.041294 34.979614,17.987274 34.673607,17.918411 
	C33.919079,17.909927 33.470562,17.970306 33.022041,18.030685 
	C33.022041,18.030687 32.542168,17.954332 32.299988,17.934959 
z"/>
<path fill="#D0B49F" opacity="1.000000" stroke="none" 
	d="
M35.204521,17.927231 
	C35.069141,17.671457 35.157444,17.301619 35.355789,16.663588 
	C35.465832,16.395395 35.550068,16.350107 35.664230,16.507336 
	C35.778389,16.664562 36.006691,16.997458 36.006691,16.997458 
	C35.813858,17.269360 35.621029,17.541264 35.204521,17.927231 
z"/>
<path fill="#6B544A" opacity="1.000000" stroke="none" 
	d="
M36.243332,16.878536 
	C36.006691,16.997458 35.778389,16.664562 35.702591,16.478792 
	C35.841202,16.200216 36.055603,16.107409 36.608284,15.922607 
	C36.791027,16.140280 36.635498,16.449945 36.243332,16.878536 
z"/>
<path fill="#EBDAC0" opacity="1.000000" stroke="none" 
	d="
M6.129196,52.858868 
	C6.111500,52.424728 6.093804,51.990585 6.106440,51.230602 
	C6.894172,50.614075 7.651572,50.323387 8.721677,50.255989 
	C9.034381,50.479282 9.056990,50.958214 9.022966,51.250725 
	C8.716418,52.039444 8.443893,52.535656 7.935020,52.992424 
	C7.698672,52.952980 7.221502,52.908539 6.947578,52.914757 
	C6.492168,52.900269 6.310682,52.879566 6.129196,52.858868 
z"/>
<path fill="#DDD1B7" opacity="1.000000" stroke="none" 
	d="
M8.977324,45.294716 
	C8.999709,44.999237 9.447227,44.969166 9.706413,45.340775 
	C9.976793,46.474976 9.987988,47.237564 9.998373,47.997192 
	C9.997565,47.994232 9.984251,47.981987 9.984251,47.981987 
	C9.641147,47.184723 9.298043,46.387455 8.977324,45.294716 
z"/>
<path fill="#FAFAFA" opacity="1.000000" stroke="none" 
	d="
M9.056990,50.958214 
	C9.056990,50.958214 9.034381,50.479282 9.029837,50.239578 
	C9.335496,49.526104 9.645700,49.052334 9.970078,48.280273 
	C9.984251,47.981987 9.997565,47.994232 10.252546,48.171715 
	C10.698509,48.929424 10.889491,49.509651 11.061572,50.313423 
	C11.042671,50.536968 10.983452,50.981739 10.662150,50.987289 
	C9.912896,50.981300 9.484942,50.969757 9.056990,50.958214 
z"/>
<path fill="#DBD5CC" opacity="1.000000" stroke="none" 
	d="
M10.983452,50.981739 
	C10.983452,50.981739 11.042671,50.536968 11.377124,50.297234 
	C12.134728,50.055103 12.557879,50.052708 13.273310,50.040752 
	C13.759915,50.017826 13.954243,50.004459 14.447104,50.000156 
	C15.143082,50.017910 15.540525,50.026596 15.937969,50.035282 
	C16.293488,50.856689 16.649008,51.678097 17.199934,53.058601 
	C17.483274,53.778725 17.571211,53.939754 17.659145,54.100788 
	C17.231510,55.845684 16.803875,57.590584 16.239456,59.653023 
	C16.102674,59.970570 15.979010,59.978958 15.633125,59.953617 
	C14.192127,59.597534 13.097014,59.266792 11.988119,58.643024 
	C11.650213,57.894547 11.326089,57.439095 10.898947,56.728996 
	C10.529444,55.994942 10.262959,55.515537 10.131958,54.708649 
	C10.506111,53.248024 10.744781,52.114880 10.983452,50.981739 
z"/>
<path fill="#70574F" opacity="1.000000" stroke="none" 
	d="
M20.524057,60.892216 
	C20.823536,61.065536 20.913942,61.529720 20.804432,62.013481 
	C20.130520,62.986923 19.566120,63.476604 18.760498,63.966301 
	C18.519279,63.966312 18.039631,63.914497 17.987375,63.614460 
	C17.349756,62.853046 16.764393,62.391674 16.154381,61.604252 
	C16.079491,60.845123 16.029251,60.412041 15.979010,59.978958 
	C15.979010,59.978958 16.102674,59.970570 16.132957,60.024864 
	C17.517019,60.292404 18.870798,60.505650 20.524057,60.892216 
z"/>
<path fill="#8B766A" opacity="1.000000" stroke="none" 
	d="
M17.680136,54.101620 
	C17.571211,53.939754 17.483274,53.778725 17.387617,53.342815 
	C17.379894,53.067932 17.679085,53.051861 17.828022,53.039902 
	C17.947123,53.207397 17.917284,53.386856 17.815136,53.830963 
	C17.742830,54.095612 17.701126,54.102451 17.680136,54.101620 
z"/>
<path fill="#8B766A" opacity="1.000000" stroke="none" 
	d="
M18.119400,54.343300 
	C18.001482,54.211800 18.457844,54.029305 18.698065,53.979446 
	C18.704630,54.111320 18.470974,54.293060 18.119400,54.343300 
z"/>
<path fill="#C8B7A5" opacity="1.000000" stroke="none" 
	d="
M30.040812,36.946598 
	C30.037899,37.409889 30.034986,37.873180 30.021723,38.921120 
	C30.011372,39.505764 29.981506,39.981403 29.678455,40.010288 
	C28.863794,40.312618 28.352184,40.586063 27.609072,40.882534 
	C27.377569,40.905556 26.917627,40.835209 26.917627,40.835209 
	C26.636614,40.384392 26.355602,39.933571 26.021618,39.220600 
	C26.137003,38.965511 26.305357,38.972576 27.001968,38.783073 
	C27.701138,37.698704 27.872053,36.810890 28.275532,35.872116 
	C28.796404,35.650467 28.986919,35.404140 29.303356,35.048550 
	C29.527077,35.014935 29.978930,34.991489 29.978930,34.991489 
	C29.978930,34.991489 30.104856,35.069984 30.081747,35.407257 
	C30.052696,36.145218 30.046755,36.545906 30.040812,36.946598 
z"/>
<path fill="#7F6253" opacity="1.000000" stroke="none" 
	d="
M26.818600,41.196594 
	C26.917627,40.835209 27.377569,40.905556 27.964956,40.925316 
	C29.027390,40.967587 29.502434,40.990097 29.973104,41.239902 
	C29.968729,41.467197 29.934572,41.920586 29.597713,41.952995 
	C28.810835,42.032787 28.360817,42.080173 27.614723,42.127178 
	C27.130581,42.186722 26.942514,42.246651 26.754446,42.306580 
	C26.742823,42.057045 26.731197,41.807510 26.818600,41.196594 
z"/>
<path fill="#E3D8BD" opacity="1.000000" stroke="none" 
	d="
M24.308887,37.998337 
	C24.556709,37.845242 25.129055,37.702110 25.815203,37.800831 
	C25.497139,38.031219 25.065277,38.019760 24.308887,37.998337 
z"/>
<path fill="#B99C85" opacity="1.000000" stroke="none" 
	d="
M26.793671,42.592655 
	C26.942514,42.246651 27.130581,42.186722 27.650295,42.431328 
	C28.001486,43.145329 28.021027,43.554794 28.040565,43.964260 
	C28.040565,43.964260 27.565212,43.960583 27.329781,43.983788 
	C27.007196,43.630905 26.920046,43.254818 26.793671,42.592655 
z"/>
<path fill="#CBB186" opacity="1.000000" stroke="none" 
	d="
M35.001339,41.983322 
	C34.409153,41.552872 33.816963,41.122421 33.425529,40.365047 
	C33.626286,40.038124 34.041512,39.999287 34.342747,39.979790 
	C35.383392,39.657486 36.122799,39.354679 36.862209,39.051872 
	C37.036755,39.115692 37.211304,39.179512 37.627769,39.405079 
	C37.869682,39.566822 37.850937,39.814709 37.773994,40.098946 
	C37.629986,40.567680 37.562920,40.752178 37.495857,40.936672 
	C37.495857,40.936672 37.229755,40.822666 36.795631,40.888985 
	C35.908119,41.297974 35.454727,41.640648 35.001339,41.983322 
z"/>
<path fill="#A99689" opacity="1.000000" stroke="none" 
	d="
M42.674759,39.021591 
	C43.003773,39.035404 42.991802,39.500980 42.976280,39.732979 
	C42.084614,40.144157 41.208469,40.323338 40.268387,40.047768 
	C40.479214,39.394302 40.753979,39.195591 41.028748,38.996880 
	C41.467747,39.000511 41.906750,39.004143 42.674759,39.021591 
z"/>
<path fill="#A18467" opacity="1.000000" stroke="none" 
	d="
M35.033195,42.282692 
	C35.454727,41.640648 35.908119,41.297974 36.652859,40.912804 
	C36.965096,41.353039 36.985985,41.835762 37.032028,42.680130 
	C36.743294,43.165054 36.478428,43.356247 36.123272,43.819626 
	C35.677658,43.543293 35.371357,43.062679 35.033195,42.282692 
z"/>
<path fill="#C8AE8F" opacity="1.000000" stroke="none" 
	d="
M41.004890,38.756268 
	C40.753979,39.195591 40.479214,39.394302 40.091270,39.825676 
	C39.978088,40.058342 39.482635,40.044224 39.244720,40.026566 
	C39.006805,40.008907 39.011368,39.984173 39.000710,39.650192 
	C38.983299,38.870518 38.976551,38.424824 38.969803,37.979126 
	C38.969803,37.979126 38.978065,37.962051 39.299793,37.967079 
	C40.060638,37.992706 40.499760,38.013306 40.938877,38.033909 
	C40.938877,38.033909 40.981033,38.515656 41.004890,38.756268 
z"/>
<path fill="#8F6E53" opacity="1.000000" stroke="none" 
	d="
M37.801331,40.888027 
	C37.562920,40.752178 37.629986,40.567680 38.061909,40.163498 
	C38.621632,39.957272 38.816502,39.970722 39.011368,39.984173 
	C39.011368,39.984173 39.006805,40.008907 38.997032,40.018288 
	C38.693775,40.298241 38.400288,40.568813 37.801331,40.888027 
z"/>
<path fill="#534441" opacity="1.000000" stroke="none" 
	d="
M41.968758,21.687183 
	C41.327721,21.235569 40.696190,20.428385 40.062031,19.297405 
	C40.699024,19.759611 41.338642,20.545614 41.968758,21.687183 
z"/>
<path fill="#473F3F" opacity="1.000000" stroke="none" 
	d="
M41.034401,60.004280 
	C41.837990,58.819263 42.641579,57.634247 43.969135,56.274918 
	C44.661270,56.145966 44.829430,56.191315 44.997589,56.236664 
	C44.989876,56.603024 44.982166,56.969383 44.970932,57.610435 
	C45.067272,58.256332 45.167137,58.627537 45.494999,59.184242 
	C46.176853,60.643162 46.630707,61.916588 47.158333,63.526558 
	C46.499577,65.303413 45.767052,66.743729 45.014027,68.528023 
	C44.576042,68.899918 44.158566,68.927826 43.428215,68.935135 
	C41.933002,66.500519 40.750656,64.086494 39.638283,61.360073 
	C40.150307,60.699879 40.592354,60.352081 41.034401,60.004280 
z"/>
<path fill="#6F6360" opacity="1.000000" stroke="none" 
	d="
M48.889133,51.673489 
	C49.049839,51.481350 49.221668,51.446407 49.633461,51.517563 
	C49.707287,51.791458 49.513802,51.917240 49.127396,52.070396 
	C48.961823,52.139786 48.900253,51.830685 48.889133,51.673489 
z"/>
<path fill="#6A5B58" opacity="1.000000" stroke="none" 
	d="
M44.923164,55.961124 
	C44.829430,56.191315 44.661270,56.145966 44.235203,56.057610 
	C43.979931,55.840309 43.982563,55.666012 43.991253,55.229946 
	C44.281116,55.207317 44.564930,55.446449 44.923164,55.961124 
z"/>
<path fill="#AE9684" opacity="1.000000" stroke="none" 
	d="
M34.041512,39.999287 
	C34.041512,39.999287 33.626286,40.038124 33.420425,40.060051 
	C33.159313,39.912556 33.104069,39.743137 33.020363,39.308273 
	C32.994717,38.850727 32.997528,38.658619 33.295494,38.016434 
	C33.730209,36.710030 33.869770,35.853706 34.365849,34.937378 
	C34.950829,34.800602 35.179295,34.723824 35.407764,34.647041 
	C35.692467,35.140934 35.977165,35.634827 35.938148,36.624004 
	C35.090130,38.079288 34.565823,39.039288 34.041512,39.999287 
z"/>
<path fill="#9C846B" opacity="1.000000" stroke="none" 
	d="
M41.238892,37.993996 
	C40.499760,38.013306 40.060638,37.992706 39.291111,37.961514 
	C39.125286,37.411907 39.289871,36.872890 39.676613,36.154442 
	C40.504150,36.126175 41.109535,36.277340 41.872753,36.192036 
	C41.866692,36.621738 41.702801,37.287914 41.238892,37.993996 
z"/>
<path fill="#CFBCA1" opacity="1.000000" stroke="none" 
	d="
M34.342747,39.979790 
	C34.565823,39.039288 35.090130,38.079288 35.888199,36.923523 
	C36.390697,37.298332 36.619431,37.868908 36.855186,38.745674 
	C36.122799,39.354679 35.383392,39.657486 34.342747,39.979790 
z"/>
<path fill="#A1897D" opacity="1.000000" stroke="none" 
	d="
M35.352531,34.391945 
	C35.179295,34.723824 34.950829,34.800602 34.299500,34.647614 
	C33.807659,34.029537 33.738678,33.641220 33.669701,33.252903 
	C33.947018,33.209724 34.224339,33.166550 34.928238,33.105919 
	C35.335648,33.437920 35.316471,33.787384 35.352531,34.391945 
z"/>
<path fill="#A4886D" opacity="1.000000" stroke="none" 
	d="
M39.000710,39.650192 
	C38.816502,39.970722 38.621632,39.957272 38.138847,39.879265 
	C37.850937,39.814709 37.869682,39.566822 37.902748,39.450943 
	C38.107910,38.980034 38.280006,38.625004 38.710953,38.124550 
	C38.976551,38.424824 38.983299,38.870518 39.000710,39.650192 
z"/>
<path fill="#7A6C65" opacity="1.000000" stroke="none" 
	d="
M50.102631,64.967735 
	C49.789768,64.761208 49.476910,64.554672 49.024708,64.095932 
	C49.129211,61.744488 48.670734,59.164295 52.405342,59.245728 
	C52.848038,59.649757 52.940186,60.023514 52.986179,61.058533 
	C52.941093,62.484379 52.942165,63.248955 52.943237,64.013535 
	C52.943237,64.013535 52.554119,63.990002 52.043571,63.986580 
	C51.056229,64.311356 50.579430,64.639542 50.102631,64.967735 
z"/>
<path fill="#ABA39A" opacity="1.000000" stroke="none" 
	d="
M26.895409,61.510689 
	C27.348366,61.128742 27.819975,61.089569 28.665281,61.425026 
	C28.950783,63.128349 28.862587,64.457039 28.397087,65.805862 
	C27.516300,65.873222 27.012819,65.920464 26.392193,65.841179 
	C26.135288,65.525742 26.051981,65.314568 26.025124,65.081131 
	C26.321436,64.005241 26.617746,62.929348 26.895409,61.510689 
z"/>
<path fill="#B3ADA2" opacity="1.000000" stroke="none" 
	d="
M25.719814,65.088593 
	C26.051981,65.314568 26.135288,65.525742 26.485994,66.185135 
	C27.455296,67.107307 28.213650,67.558998 28.972006,68.010696 
	C28.972006,68.010696 29.114296,68.394966 29.141716,68.597946 
	C28.168137,68.959846 27.167137,69.118767 25.793896,69.319542 
	C25.044825,68.771431 24.668001,68.181473 24.172638,67.088432 
	C24.054100,66.585350 24.088299,66.221840 24.088299,66.221840 
	C24.530365,65.846573 24.972435,65.471306 25.719814,65.088593 
z"/>
<path fill="#A69A92" opacity="1.000000" stroke="none" 
	d="
M23.795206,66.225739 
	C24.088299,66.221840 24.054100,66.585350 24.042305,66.766884 
	C21.996719,68.016724 20.034792,68.806374 19.393599,65.330345 
	C20.778950,65.356575 21.855354,65.725334 22.931757,66.094093 
	C23.121878,66.139275 23.311996,66.184456 23.795206,66.225739 
z"/>
<path fill="#816D65" opacity="1.000000" stroke="none" 
	d="
M22.948589,65.735680 
	C21.855354,65.725334 20.778950,65.356575 19.355595,64.980515 
	C19.008640,64.973206 19.020950,64.994911 19.024500,64.732986 
	C19.019274,64.302803 19.010496,64.134544 19.001720,63.966286 
	C19.566120,63.476604 20.130520,62.986923 20.831833,62.248344 
	C21.148565,61.996510 21.328386,61.993572 21.778355,62.000427 
	C22.354139,63.132568 22.659781,64.254921 22.948589,65.735680 
z"/>
<path fill="#FEFEFE" opacity="1.000000" stroke="none" 
	d="
M29.079638,35.082165 
	C28.986919,35.404140 28.796404,35.650467 28.194206,35.679104 
	C27.880318,35.537056 27.673368,35.172325 27.673368,35.172325 
	C27.759333,34.093506 27.845299,33.014687 27.906605,31.532520 
	C27.909019,30.953630 27.936089,30.778091 27.985912,30.337637 
	C28.008665,30.072720 28.372749,30.069389 28.553822,30.074556 
	C29.138327,30.586855 29.541756,31.093987 30.195374,31.815002 
	C30.384670,32.195618 30.323776,32.362347 29.884705,32.920731 
	C29.364229,33.902317 29.221933,34.492241 29.079638,35.082165 
z"/>
<path fill="#B8926C" opacity="1.000000" stroke="none" 
	d="
M27.392670,35.139076 
	C27.673368,35.172325 27.880318,35.537056 27.961643,35.730068 
	C27.872053,36.810890 27.701138,37.698704 27.254570,38.791870 
	C26.733089,37.860676 26.487263,36.724125 26.119074,35.249409 
	C26.368464,34.976109 26.740217,35.040970 27.392670,35.139076 
z"/>
<path fill="#DBD5D1" opacity="1.000000" stroke="none" 
	d="
M25.850113,33.765770 
	C25.562246,34.025036 25.126772,34.025013 24.367470,34.066772 
	C24.035561,33.922428 24.027477,33.736294 24.018929,33.270653 
	C24.579807,33.162930 25.141153,33.334709 25.850113,33.765770 
z"/>
<path fill="#F6F1DE" opacity="1.000000" stroke="none" 
	d="
M12.981031,50.050308 
	C12.557879,50.052708 12.134728,50.055103 11.396025,50.073685 
	C10.889491,49.509651 10.698509,48.929424 10.253355,48.174679 
	C9.987988,47.237564 9.976793,46.474976 9.930482,45.331459 
	C10.538760,44.791267 11.182155,44.632008 11.940202,45.046432 
	C12.372143,46.418163 12.689430,47.216209 13.006720,48.014256 
	C13.006720,48.014256 13.016397,48.058708 13.014084,48.402107 
	C13.001525,49.180443 12.991278,49.615376 12.981031,50.050308 
z"/>
<path fill="#DACDB6" opacity="1.000000" stroke="none" 
	d="
M13.011284,47.630627 
	C12.689430,47.216209 12.372143,46.418163 12.116533,45.271954 
	C12.178211,44.923790 12.541954,44.947479 12.723127,44.946037 
	C12.941483,45.712059 12.978666,46.479530 13.011284,47.630627 
z"/>
<path fill="#B7AB9D" opacity="1.000000" stroke="none" 
	d="
M53.275547,63.988487 
	C52.942165,63.248955 52.941093,62.484379 53.027542,61.345856 
	C53.896450,61.234707 54.677841,61.497505 55.801659,61.856628 
	C56.144081,61.952953 56.247456,61.970547 56.084263,62.218636 
	C55.593636,62.954170 55.266197,63.441612 54.938759,63.929058 
	C54.495129,63.940517 54.051491,63.951977 53.275547,63.988487 
z"/>
<path fill="#97837D" opacity="1.000000" stroke="none" 
	d="
M56.787823,61.105053 
	C57.164200,60.995464 57.336578,61.006092 57.766380,61.048714 
	C58.023804,61.080708 58.007504,61.538906 57.710415,61.768089 
	C57.024704,61.988361 56.636078,61.979454 56.247456,61.970551 
	C56.247456,61.970547 56.144081,61.952953 56.095100,61.970284 
	C56.142677,61.675182 56.321911,61.421070 56.787823,61.105053 
z"/>
<path fill="#AC9488" opacity="1.000000" stroke="none" 
	d="
M28.983120,59.100231 
	C28.993855,58.345474 29.019995,57.552837 29.035070,56.363441 
	C29.020496,54.910149 29.016983,53.853615 29.021255,52.400379 
	C29.344284,51.901123 29.597523,51.714458 30.144547,51.377258 
	C31.211428,51.924114 31.922520,52.537392 32.677830,53.338806 
	C32.722050,53.526947 32.855114,53.889851 32.787392,54.297554 
	C32.652313,56.056915 32.584953,57.408573 32.336723,58.759792 
	C32.155857,58.759354 31.805967,58.851166 31.569818,58.945095 
	C30.914333,59.322716 30.494997,59.606403 29.936281,59.685383 
	C29.548452,59.248627 29.258045,59.096802 28.925678,59.025196 
	C28.925678,59.025196 28.998526,59.062355 28.983120,59.100231 
z"/>
<path fill="#CAB39F" opacity="1.000000" stroke="none" 
	d="
M16.210800,49.836029 
	C15.540525,50.026596 15.143082,50.017910 14.407526,49.672352 
	C14.067109,48.895538 14.064806,48.455593 14.062502,48.015652 
	C14.062502,48.015652 14.510930,48.004433 14.948492,47.891716 
	C15.654125,47.581898 15.794048,47.317097 15.805823,46.984596 
	C15.974142,46.913151 16.142462,46.841702 16.574566,46.694157 
	C16.869474,46.791424 16.900600,46.964794 16.952541,47.397957 
	C16.810114,48.317429 16.646873,48.977100 16.210800,49.836029 
z"/>
<path fill="#F9F5E5" opacity="1.000000" stroke="none" 
	d="
M13.805927,48.025654 
	C14.064806,48.455593 14.067109,48.895538 14.108992,49.663284 
	C13.954243,50.004459 13.759915,50.017826 13.273310,50.040752 
	C12.991278,49.615376 13.001525,49.180443 13.025681,48.421677 
	C13.209511,48.077114 13.379431,48.056385 13.805927,48.025654 
z"/>
<path fill="#DACDB6" opacity="1.000000" stroke="none" 
	d="
M15.611946,47.093773 
	C15.794048,47.317097 15.654125,47.581898 15.171606,47.868843 
	C15.039536,47.663277 15.193173,47.411366 15.611946,47.093773 
z"/>
<path fill="#91715E" opacity="1.000000" stroke="none" 
	d="
M32.633610,53.150669 
	C31.922520,52.537392 31.211428,51.924114 30.246780,51.160667 
	C29.997541,50.838604 30.001860,50.666714 30.354643,50.188644 
	C31.135208,48.927849 31.567305,47.973236 31.999405,47.018620 
	C32.370396,48.151146 32.741386,49.283672 33.068657,51.106602 
	C32.894493,52.248226 32.764053,52.699448 32.633610,53.150669 
z"/>
<path fill="#75584C" opacity="1.000000" stroke="none" 
	d="
M32.005859,47.012375 
	C31.567305,47.973236 31.135208,48.927849 30.363033,49.930862 
	C29.904142,49.685677 29.727331,49.432621 29.288998,49.107582 
	C29.085472,48.995064 29.116449,48.554390 29.322586,48.187851 
	C29.749323,47.585026 29.913784,47.314587 30.354692,47.012180 
	C31.130762,47.017563 31.574244,47.020771 32.017727,47.023979 
	C32.017727,47.023979 32.012318,47.006130 32.005859,47.012375 
z"/>
<path fill="#A1897D" opacity="1.000000" stroke="none" 
	d="
M40.133682,27.999973 
	C40.066460,27.578035 40.296059,27.438095 40.811493,27.650297 
	C40.807697,28.024746 40.585426,28.117924 40.133682,27.999973 
z"/>
<path fill="#A1897D" opacity="1.000000" stroke="none" 
	d="
M42.969376,28.688049 
	C42.789101,28.976645 42.535980,28.994129 41.903076,28.984499 
	C41.981037,28.777237 42.438786,28.597090 42.969376,28.688049 
z"/>
<path fill="#B29279" opacity="1.000000" stroke="none" 
	d="
M29.934570,41.920586 
	C29.934572,41.920586 29.968729,41.467197 30.228119,41.239487 
	C30.657330,41.008427 30.827147,41.005081 30.996962,41.001740 
	C31.086277,42.146172 31.175591,43.290604 30.825718,44.721077 
	C30.187159,45.019035 29.987787,45.030952 29.788418,45.042870 
	C29.788418,45.042870 29.397753,45.061798 29.321201,44.735596 
	C29.474623,43.579792 29.704596,42.750187 29.934570,41.920586 
z"/>
<path fill="#A2816A" opacity="1.000000" stroke="none" 
	d="
M29.597712,41.952995 
	C29.704596,42.750187 29.474623,43.579792 29.126583,44.716393 
	C29.008520,45.023392 28.552515,44.982719 28.333172,44.918770 
	C28.113827,44.854816 28.054949,44.411716 28.047758,44.187988 
	C28.021027,43.554794 28.001486,43.145329 27.946373,42.431713 
	C28.360817,42.080173 28.810835,42.032787 29.597712,41.952995 
z"/>
<path fill="#A2816A" opacity="1.000000" stroke="none" 
	d="
M29.798595,45.246246 
	C29.987787,45.030952 30.187159,45.019035 30.685863,44.999451 
	C31.260963,45.491222 31.536732,45.990665 31.915112,46.757042 
	C31.574244,47.020771 31.130762,47.017563 30.320801,47.002937 
	C29.954321,46.991516 29.892273,46.958546 29.903576,46.681198 
	C29.883554,46.221466 29.852228,46.039085 29.820904,45.856705 
	C29.820904,45.856705 29.808771,45.449623 29.798595,45.246246 
z"/>
<path fill="#AD8B71" opacity="1.000000" stroke="none" 
	d="
M29.988213,47.000759 
	C29.913784,47.314587 29.749323,47.585026 29.340891,47.967735 
	C29.119684,47.932121 29.086308,47.750092 29.262856,47.278397 
	C29.472784,46.988728 29.892273,46.958546 29.892273,46.958546 
	C29.892273,46.958546 29.954321,46.991516 29.988213,47.000759 
z"/>
<path fill="#B29279" opacity="1.000000" stroke="none" 
	d="
M29.903576,46.681198 
	C29.892273,46.958546 29.472784,46.988728 29.263294,47.000801 
	C29.104828,46.689499 29.238440,46.404915 29.637772,46.007912 
	C29.852228,46.039085 29.883554,46.221466 29.903576,46.681198 
z"/>
<path fill="#785C51" opacity="1.000000" stroke="none" 
	d="
M30.075661,59.890091 
	C30.494997,59.606403 30.914333,59.322716 31.655436,59.380913 
	C31.952265,61.469040 31.927328,63.215279 31.902391,64.961517 
	C31.415854,65.214294 30.929316,65.467072 29.897282,65.807343 
	C29.159323,65.858467 28.966856,65.822105 28.774391,65.785736 
	C28.862587,64.457039 28.950783,63.128349 29.020088,61.399788 
	C29.001196,60.999924 29.151203,60.528416 29.410061,60.268959 
	C29.668921,60.009499 30.075659,59.890091 30.075661,59.890091 
z"/>
<path fill="#8B766A" opacity="1.000000" stroke="none" 
	d="
M29.936279,59.685379 
	C30.075659,59.890091 29.668921,60.009499 29.457726,60.026192 
	C29.143820,59.888889 29.041109,59.734890 28.932037,59.303043 
	C29.258045,59.096802 29.548452,59.248627 29.936279,59.685379 
z"/>
<path fill="#756461" opacity="1.000000" stroke="none" 
	d="
M62.105682,62.239388 
	C62.565727,61.807125 63.130512,61.613998 63.863258,61.163170 
	C64.502678,60.703239 64.974129,60.501007 65.699265,60.256500 
	C65.949440,60.917347 65.945938,61.620461 65.957993,62.678619 
	C65.973541,63.033657 65.954620,63.443569 65.931381,63.645813 
	C65.149200,63.586823 64.390259,63.325592 63.326431,63.094254 
	C62.751171,62.908939 62.480797,62.693729 62.105682,62.239388 
z"/>
<path fill="#756864" opacity="1.000000" stroke="none" 
	d="
M60.008987,63.991074 
	C60.482845,64.294884 60.956703,64.598686 61.728760,64.906853 
	C62.012791,65.330345 61.998623,65.749474 61.957890,66.481201 
	C61.654999,67.021591 61.378674,67.249382 61.013954,67.733398 
	C60.925560,67.989609 60.453804,67.982933 60.200661,67.694046 
	C59.634995,66.936874 59.322472,66.468597 59.009949,66.000313 
	C59.006508,65.555939 59.003071,65.111565 59.252510,64.331787 
	C59.673260,63.994610 59.841125,63.992840 60.008987,63.991074 
z"/>
<path fill="#A0908A" opacity="1.000000" stroke="none" 
	d="
M18.760500,63.966301 
	C19.010496,64.134544 19.019274,64.302803 19.030693,64.723488 
	C18.718437,65.061501 18.454390,65.227776 18.126774,65.679123 
	C15.620164,66.205315 13.227978,66.527122 10.445631,66.874817 
	C9.002190,65.375992 7.948909,63.851280 7.100287,61.966419 
	C7.304945,61.606270 7.429379,61.188335 7.429379,61.188335 
	C8.981255,61.464424 10.848264,64.490372 11.966286,60.068451 
	C12.001706,59.288315 12.001803,59.112183 12.001901,58.936050 
	C13.097014,59.266792 14.192127,59.597534 15.633125,59.953617 
	C16.029251,60.412041 16.079491,60.845123 16.119036,61.937332 
	C16.752104,63.035805 17.395866,63.475151 18.039631,63.914497 
	C18.039631,63.914497 18.519279,63.966312 18.760500,63.966301 
z"/>
<path fill="#E1E2E2" opacity="1.000000" stroke="none" 
	d="
M7.383803,61.182354 
	C7.429379,61.188335 7.304945,61.606270 7.209162,61.678402 
	C7.113379,61.750534 7.164720,61.415665 7.224787,61.258591 
	C7.284854,61.101517 7.338226,61.176373 7.383803,61.182354 
z"/>
<path fill="#C0B5A5" opacity="1.000000" stroke="none" 
	d="
M11.988119,58.643024 
	C12.001803,59.112183 12.001706,59.288315 11.994285,59.728462 
	C10.582135,59.751526 9.177309,59.510578 7.467596,59.080917 
	C7.157459,58.722427 7.152210,58.552654 7.514092,58.167389 
	C8.921470,57.629147 9.961718,57.306393 11.001965,56.983643 
	C11.326089,57.439095 11.650213,57.894547 11.988119,58.643024 
z"/>
<path fill="#D0C4B7" opacity="1.000000" stroke="none" 
	d="
M10.898947,56.728996 
	C9.961718,57.306393 8.921470,57.629147 7.538635,57.913795 
	C7.152192,57.170158 7.108335,56.464622 7.151702,55.360764 
	C7.238924,54.962444 7.462602,55.017456 7.777245,54.983658 
	C8.726749,54.978615 9.361611,55.007374 9.996473,55.036133 
	C10.262959,55.515537 10.529444,55.994942 10.898947,56.728996 
z"/>
<path fill="#816D65" opacity="1.000000" stroke="none" 
	d="
M5.858642,52.918110 
	C6.310682,52.879566 6.492168,52.900269 7.037735,53.203033 
	C7.518728,53.648952 7.635639,53.812817 7.649215,54.228279 
	C7.518121,54.659073 7.490361,54.838264 7.462602,55.017456 
	C7.462602,55.017456 7.238924,54.962444 7.132382,55.006073 
	C6.575773,55.030735 6.125706,55.011776 5.338322,54.976463 
	C5.002328,54.531998 5.003652,54.103874 5.021085,53.355515 
	C5.220826,53.015968 5.404457,52.996658 5.858642,52.918110 
z"/>
<path fill="#F4EEE5" opacity="1.000000" stroke="none" 
	d="
M40.899734,59.946411 
	C40.592354,60.352081 40.150307,60.699879 39.397671,61.109299 
	C37.694996,61.110611 36.302906,61.050297 34.464531,60.645081 
	C34.028507,59.881706 34.038773,59.463238 34.049553,59.088371 
	C34.050068,59.131973 34.136326,59.145741 34.442566,59.075462 
	C35.150608,58.886372 35.552406,58.767567 36.295963,58.761627 
	C37.109520,58.843193 37.581322,58.811897 38.053120,58.780598 
	C38.698505,59.011139 39.343887,59.241680 40.325493,59.543224 
	C40.661709,59.614227 40.765072,59.888542 40.899734,59.946411 
z"/>
<path fill="#362F2D" opacity="1.000000" stroke="none" 
	d="
M34.049034,59.044765 
	C34.038773,59.463238 34.028507,59.881706 34.046753,60.612816 
	C33.978283,61.355453 33.881302,61.785454 33.724228,62.888866 
	C33.587784,64.020920 33.511436,64.479561 33.435089,64.938202 
	C33.435089,64.938202 33.076702,64.891884 32.896690,64.914612 
	C32.716679,64.937332 32.311420,64.967316 32.106907,64.964417 
	C31.927328,63.215279 31.952265,61.469040 31.891584,59.286983 
	C31.805967,58.851166 32.155857,58.759354 32.717979,58.847858 
	C33.536415,58.972500 33.792725,59.008633 34.049034,59.044765 
z"/>
<path fill="#9C8983" opacity="1.000000" stroke="none" 
	d="
M33.748413,64.863297 
	C33.511436,64.479561 33.587784,64.020920 33.738258,63.220337 
	C33.895500,63.515064 33.978619,64.151726 33.748413,64.863297 
z"/>
<path fill="#534744" opacity="1.000000" stroke="none" 
	d="
M28.397087,65.805862 
	C28.966856,65.822105 29.159323,65.858467 29.644157,65.915611 
	C29.787775,66.518517 29.639025,67.100639 29.231140,67.846725 
	C28.213650,67.558998 27.455296,67.107307 26.603138,66.311661 
	C27.012819,65.920464 27.516300,65.873222 28.397087,65.805862 
z"/>
<path fill="#997D54" opacity="1.000000" stroke="none" 
	d="
M58.716492,66.129257 
	C59.322472,66.468597 59.634995,66.936874 59.964886,67.701851 
	C59.651192,68.276840 59.320129,68.555145 58.658676,68.913773 
	C57.338692,68.837387 56.349094,68.680695 55.178825,68.260963 
	C56.139786,67.418015 57.281410,66.838112 58.716492,66.129257 
z"/>
<path fill="#958881" opacity="1.000000" stroke="none" 
	d="
M56.084263,62.218639 
	C56.636078,61.979454 57.024704,61.988361 57.707188,61.997307 
	C58.001049,61.997349 58.020668,62.013107 58.019341,62.344391 
	C57.998596,63.108070 57.979187,63.540466 57.959774,63.972870 
	C57.204620,63.976963 56.449467,63.981060 55.316536,63.957108 
	C55.266197,63.441612 55.593636,62.954170 56.084263,62.218639 
z"/>
<path fill="#82796E" opacity="1.000000" stroke="none" 
	d="
M58.220215,63.982574 
	C57.979187,63.540466 57.998596,63.108070 58.029572,62.351654 
	C58.668686,62.471371 59.296234,62.915100 59.966385,63.674953 
	C59.841125,63.992840 59.673260,63.994610 59.253609,63.998493 
	C58.828110,63.997833 58.654385,63.995056 58.220215,63.982574 
z"/>
<path fill="#958881" opacity="1.000000" stroke="none" 
	d="
M50.400574,64.950989 
	C50.579430,64.639542 51.056229,64.311356 51.848698,63.982685 
	C51.675755,64.299553 51.187138,64.616898 50.400574,64.950989 
z"/>
<path fill="#7E6A63" opacity="1.000000" stroke="none" 
	d="
M37.916519,52.841217 
	C38.719364,52.909237 39.364178,53.035728 40.526577,53.263752 
	C39.732162,53.921421 39.206963,54.356216 38.061920,54.903000 
	C36.954304,55.004345 36.466530,54.993702 35.967110,54.767975 
	C35.955467,54.552883 35.935188,54.122097 35.963013,53.889717 
	C35.990837,53.657337 36.029888,53.190887 36.380817,53.143280 
	C36.963802,53.052189 37.195858,53.008701 37.427914,52.965214 
	C37.427914,52.965214 37.758488,52.899689 37.916519,52.841217 
z"/>
<path fill="#5B4945" opacity="1.000000" stroke="none" 
	d="
M32.677830,53.338806 
	C32.764053,52.699448 32.894493,52.248226 33.069824,51.447689 
	C33.514320,51.072514 33.913925,51.046654 34.654167,51.347466 
	C35.027035,52.103222 35.059265,52.532310 35.057434,53.219391 
	C35.017971,53.650600 35.012569,53.823811 34.980850,54.292114 
	C34.658974,55.070343 34.363422,55.553478 34.021835,55.715794 
	C33.602242,54.893265 33.228680,54.391556 32.855114,53.889851 
	C32.855114,53.889851 32.722050,53.526947 32.677830,53.338806 
z"/>
<path fill="#95867E" opacity="1.000000" stroke="none" 
	d="
M35.091499,52.961395 
	C35.059265,52.532310 35.027035,52.103222 34.955486,51.353859 
	C35.638218,51.515259 36.360264,51.996937 37.255112,52.721912 
	C37.195858,53.008701 36.963802,53.052189 36.149483,53.070763 
	C35.567223,53.045853 35.091499,52.961395 35.091499,52.961395 
z"/>
<path fill="#8C7A72" opacity="1.000000" stroke="none" 
	d="
M31.221304,40.899776 
	C30.827147,41.005081 30.657330,41.008427 30.232494,41.012192 
	C29.502434,40.990097 29.027390,40.967587 28.196459,40.902298 
	C28.352184,40.586063 28.863794,40.312618 30.015003,40.020832 
	C31.102800,40.001835 31.550995,40.001183 31.999191,40.000526 
	C31.907669,40.330864 31.723154,40.596626 31.221304,40.899776 
z"/>
<path fill="#AE9684" opacity="1.000000" stroke="none" 
	d="
M32.022552,39.758888 
	C31.550995,40.001183 31.102800,40.001835 30.318054,39.991947 
	C29.981506,39.981403 30.011372,39.505764 30.026875,39.268555 
	C30.488756,39.022671 30.935137,39.013996 31.718542,39.018570 
	C32.055569,39.031811 32.045910,39.517246 32.022552,39.758888 
z"/>
<path fill="#7B736D" opacity="1.000000" stroke="none" 
	d="
M35.978756,54.983063 
	C36.466530,54.993702 36.954304,55.004345 37.810123,55.046108 
	C38.138889,56.064430 38.099609,57.051628 38.056725,58.409714 
	C37.581322,58.811897 37.109520,58.843193 36.303398,58.395660 
	C35.972305,56.938908 35.975533,55.960983 35.978756,54.983063 
z"/>
<path fill="#977363" opacity="1.000000" stroke="none" 
	d="
M35.230026,18.878632 
	C35.620316,18.930029 36.010609,18.981426 36.695286,19.054922 
	C37.002563,19.479582 37.015453,19.882143 37.034225,20.942413 
	C37.039967,22.070976 37.039822,22.541828 37.039680,23.012682 
	C36.861866,23.013514 36.684048,23.014347 36.239250,23.011391 
	C35.859810,22.459179 35.747345,21.910755 35.383156,20.819164 
	C35.164295,19.810209 35.197163,19.344419 35.230026,18.878632 
z"/>
<path fill="#B09A8D" opacity="1.000000" stroke="none" 
	d="
M37.027248,23.345377 
	C37.039822,22.541828 37.039967,22.070976 37.026253,21.245163 
	C37.464996,22.040051 37.917587,23.189898 38.254646,24.605595 
	C37.970146,24.899937 37.801186,24.928432 37.377350,24.979063 
	C37.086586,24.560156 37.050701,24.119114 37.027248,23.345377 
z"/>
<path fill="#B09A8D" opacity="1.000000" stroke="none" 
	d="
M39.162086,27.067026 
	C39.030209,27.422728 38.610695,27.257954 38.387585,27.242783 
	C38.124413,26.723436 38.084351,26.219261 38.061409,25.338486 
	C38.483669,25.545029 38.888813,26.128178 39.162086,27.067026 
z"/>
<path fill="#E3D8BD" opacity="1.000000" stroke="none" 
	d="
M33.509697,33.257828 
	C33.738678,33.641220 33.807659,34.029537 33.942986,34.707619 
	C33.869770,35.853706 33.730209,36.710030 33.305294,37.728416 
	C33.042835,36.629223 33.065727,35.367973 33.069477,33.741501 
	C33.050335,33.376278 33.349689,33.262753 33.509697,33.257828 
z"/>
<path fill="#A89282" opacity="1.000000" stroke="none" 
	d="
M30.259571,36.835968 
	C30.046755,36.545906 30.052696,36.145218 30.138016,35.455612 
	C30.304375,35.686241 30.391354,36.205791 30.259571,36.835968 
z"/>
<path fill="#E8E0D8" opacity="1.000000" stroke="none" 
	d="
M29.303356,35.048550 
	C29.221933,34.492241 29.364229,33.902317 29.783983,33.167198 
	C30.069258,33.461403 30.077072,33.900810 30.031908,34.665852 
	C29.978930,34.991489 29.527077,35.014935 29.303356,35.048550 
z"/>
<path fill="#D0B49F" opacity="1.000000" stroke="none" 
	d="
M35.172489,18.656601 
	C35.197163,19.344419 35.164295,19.810209 35.178352,20.624832 
	C34.721523,20.978460 34.217770,20.983253 33.337452,20.983589 
	C32.963371,20.241726 32.965858,19.504316 32.995193,18.398796 
	C33.470562,17.970306 33.919079,17.909927 34.700542,17.916338 
	C35.033485,17.983128 35.114952,18.434568 35.172489,18.656601 
z"/>
<path fill="#F1ECDF" opacity="1.000000" stroke="none" 
	d="
M7.777245,54.983658 
	C7.490361,54.838264 7.518121,54.659073 7.745748,54.086296 
	C8.034997,53.477261 8.110249,53.256981 8.171370,53.031868 
	C8.443893,52.535656 8.716418,52.039444 9.022966,51.250725 
	C9.484942,50.969757 9.912896,50.981300 10.662151,50.987289 
	C10.744781,52.114880 10.506111,53.248024 10.131957,54.708649 
	C9.361611,55.007374 8.726749,54.978615 7.777245,54.983658 
z"/>
<path fill="#D0C4B7" opacity="1.000000" stroke="none" 
	d="
M7.935021,52.992424 
	C8.110249,53.256981 8.034997,53.477261 7.849083,53.834698 
	C7.635639,53.812817 7.518728,53.648952 7.311659,53.196815 
	C7.221502,52.908539 7.698672,52.952980 7.935021,52.992424 
z"/>
<path fill="#7E6A63" opacity="1.000000" stroke="none" 
	d="
M17.987373,63.614460 
	C17.395866,63.475151 16.752104,63.035805 16.143684,62.263378 
	C16.764393,62.391674 17.349756,62.853046 17.987373,63.614460 
z"/>
<path fill="#473B38" opacity="1.000000" stroke="none" 
	d="
M32.787392,54.297554 
	C33.228680,54.391556 33.602242,54.893265 34.012032,56.104420 
	C34.077618,57.591156 34.106972,58.368450 34.136326,59.145741 
	C34.136326,59.145741 34.050068,59.131973 34.049553,59.088371 
	C33.792725,59.008633 33.536415,58.972500 32.898849,58.848297 
	C32.584953,57.408573 32.652313,56.056915 32.787392,54.297554 
z"/>
<path fill="#6A5B5B" opacity="1.000000" stroke="none" 
	d="
M34.442566,59.075462 
	C34.106972,58.368450 34.077618,57.591156 34.058067,56.425240 
	C34.363422,55.553478 34.658974,55.070343 35.214005,54.314545 
	C35.473488,54.041885 35.935188,54.122097 35.935188,54.122097 
	C35.935188,54.122097 35.955467,54.552883 35.967110,54.767975 
	C35.975533,55.960983 35.972305,56.938908 35.961639,58.282795 
	C35.552406,58.767567 35.150608,58.886372 34.442566,59.075462 
z"/>
<path fill="#7B736D" opacity="1.000000" stroke="none" 
	d="
M35.963013,53.889717 
	C35.935188,54.122097 35.473488,54.041885 35.240330,54.019455 
	C35.012569,53.823811 35.017971,53.650600 35.057434,53.219391 
	C35.091499,52.961395 35.567223,53.045853 35.798553,53.118370 
	C36.029888,53.190887 35.990837,53.657337 35.963013,53.889717 
z"/>
</svg>